<?xml version="1.0" encoding="UTF-8"?>
<svg width="24px" height="24px" viewBox="0 0 24 24" version="1.1" xmlns="http://www.w3.org/2000/svg" xmlns:xlink="http://www.w3.org/1999/xlink">
    <title>02 icon/占位</title>
    <defs>
        <circle id="path-1" cx="11" cy="11" r="11"></circle>
    </defs>
    <g id="工作概览-0916" stroke="none" stroke-width="1" fill="none" fill-rule="evenodd">
        <g id="Qualitis系统-工作概览-一屏" transform="translate(-180.000000, -20.000000)">
            <g id="02-icon/占位" transform="translate(180.000000, 20.000000)">
                <g id="编组-2" transform="translate(1.000000, 1.000000)">
                    <mask id="mask-2" fill="white">
                        <use xlink:href="#path-1"></use>
                    </mask>
                    <g id="椭圆形"></g>
                    <path d="M11,4 C13.209139,4 15,5.790861 15,8 C15,10.209139 13.209139,12 11,12 C8.790861,12 7,10.209139 7,8 C7,5.790861 8.790861,4 11,4 Z M11,4.5 C9.06700338,4.5 7.5,6.06700338 7.5,8 C7.5,9.93299662 9.06700338,11.5 11,11.5 C12.9329966,11.5 14.5,9.93299662 14.5,8 C14.5,6.06700338 12.9329966,4.5 11,4.5 Z" id="椭圆形" fill="#646670" fill-rule="nonzero" mask="url(#mask-2)"></path>
                    <path d="M11,13 C17.627417,13 23,18.372583 23,25 C23,31.627417 17.627417,37 11,37 C4.372583,37 -1,31.627417 -1,25 C-1,18.372583 4.372583,13 11,13 Z M11,13.5 C4.64872538,13.5 -0.5,18.6487254 -0.5,25 C-0.5,31.3512746 4.64872538,36.5 11,36.5 C17.3512746,36.5 22.5,31.3512746 22.5,25 C22.5,18.6487254 17.3512746,13.5 11,13.5 Z" id="椭圆形备份" fill="#646670" fill-rule="nonzero" mask="url(#mask-2)"></path>
                </g>
                <path d="M12,0.75 C5.78679656,0.75 0.75,5.78679656 0.75,12 C0.75,18.2132034 5.78679656,23.25 12,23.25 C18.2132034,23.25 23.25,18.2132034 23.25,12 C23.25,5.78679656 18.2132034,0.75 12,0.75 Z M12,1.25 C17.9370611,1.25 22.75,6.06293894 22.75,12 C22.75,17.9370611 17.9370611,22.75 12,22.75 C6.06293894,22.75 1.25,17.9370611 1.25,12 C1.25,6.06293894 6.06293894,1.25 12,1.25 Z" id="椭圆形" fill="#646670" fill-rule="nonzero"></path>
            </g>
        </g>
    </g>
</svg>