<?xml version="1.0" encoding="UTF-8"?>
<svg width="14px" height="14px" viewBox="0 0 14 14" version="1.1" xmlns="http://www.w3.org/2000/svg" xmlns:xlink="http://www.w3.org/1999/xlink">
    <title>120-配置</title>
    <g id="0.25.0" stroke="none" stroke-width="1" fill="none" fill-rule="evenodd">
        <g id="我的项目-详情-项目规则" transform="translate(-999.000000, -377.000000)" fill="#93949B" fill-rule="nonzero">
            <g id="编组-4" transform="translate(236.000000, 303.000000)">
                <g id="编组-5" transform="translate(25.000000, 65.000000)">
                    <g id="按钮2备份-6" transform="translate(722.000000, 0.000000)">
                        <g id="120-配置" transform="translate(16.000000, 9.000000)">
                            <rect id="矩形" opacity="0" x="0" y="0" width="14" height="14"></rect>
                            <path d="M11.090625,9.91621094 C10.7679687,9.91621094 10.5068359,9.65507813 10.5068359,9.33242187 L10.5068359,2.33242187 C10.5068359,2.00976562 10.7679687,1.74863281 11.090625,1.74863281 C11.4132812,1.74863281 11.6744141,2.00976562 11.6744141,2.33242187 L11.6744141,9.33242187 C11.6744141,9.65644531 11.4132812,9.91621094 11.090625,9.91621094 Z M2.92304687,12.25 C2.60039062,12.25 2.33925781,11.9888672 2.33925781,11.6662109 L2.33925781,4.66621094 C2.33925781,4.34355469 2.60039062,4.08242187 2.92304687,4.08242187 C3.24570312,4.08242187 3.50683594,4.34355469 3.50683594,4.66621094 L3.50683594,11.6662109 C3.50683594,11.9888672 3.24570312,12.25 2.92304687,12.25 Z M7.00683594,5.83378906 C6.68417969,5.83378906 6.42304687,5.57265625 6.42304687,5.25 L6.42304687,2.33242188 C6.42304687,2.00976563 6.68417969,1.74863281 7.00683594,1.74863281 C7.32949219,1.74863281 7.590625,2.00976563 7.590625,2.33242188 L7.590625,5.25 C7.590625,5.57265625 7.32949219,5.83378906 7.00683594,5.83378906 Z M7.00683594,12.25 C6.68417969,12.25 6.42304687,11.9888672 6.42304687,11.6662109 L6.42304687,8.16621094 C6.42304687,7.84355469 6.68417969,7.58242188 7.00683594,7.58242188 C7.32949219,7.58242188 7.590625,7.84355469 7.590625,8.16621094 L7.590625,11.6662109 C7.590625,11.9888672 7.32949219,12.25 7.00683594,12.25 Z M2.92304687,5.25 C1.9578125,5.25 1.17304687,4.46523438 1.17304687,3.5 C1.17304687,2.53476562 1.9578125,1.75 2.92304687,1.75 C3.88828125,1.75 4.67304687,2.53476563 4.67304687,3.5 C4.67304687,4.46523438 3.88828125,5.25 2.92304687,5.25 Z M2.92304687,2.91621094 C2.60175781,2.91621094 2.33925781,3.17734375 2.33925781,3.5 C2.33925781,3.82128906 2.60039062,4.08378906 2.92304687,4.08378906 C3.24570312,4.08378906 3.50683594,3.82265625 3.50683594,3.5 C3.50683594,3.17871094 3.24433594,2.91621094 2.92304687,2.91621094 Z M7.00683594,8.75 C6.04160156,8.75 5.25683594,7.96523437 5.25683594,7 C5.25683594,6.03476563 6.04160156,5.25 7.00683594,5.25 C7.97207031,5.25 8.75683594,6.03476563 8.75683594,7 C8.75683594,7.96523437 7.97207031,8.75 7.00683594,8.75 Z M7.00683594,6.41621094 C6.68554687,6.41621094 6.42304687,6.67734375 6.42304687,7 C6.42304687,7.32128906 6.68417969,7.58378906 7.00683594,7.58378906 C7.328125,7.58378906 7.590625,7.32265625 7.590625,7 C7.590625,6.67871094 7.328125,6.41621094 7.00683594,6.41621094 Z M11.090625,12.25 C10.1253906,12.25 9.340625,11.4652344 9.340625,10.5 C9.340625,9.53476563 10.1253906,8.75 11.090625,8.75 C12.0558594,8.75 12.840625,9.53476563 12.840625,10.5 C12.840625,11.4652344 12.0558594,12.25 11.090625,12.25 Z M11.090625,9.91621094 C10.7693359,9.91621094 10.5068359,10.1773438 10.5068359,10.5 C10.5068359,10.8212891 10.7679687,11.0837891 11.090625,11.0837891 C11.4132812,11.0837891 11.6744141,10.8226563 11.6744141,10.5 C11.6744141,10.1787109 11.4119141,9.91621094 11.090625,9.91621094 Z" id="形状"></path>
                        </g>
                    </g>
                </g>
            </g>
        </g>
    </g>
</svg>