<?xml version="1.0" encoding="UTF-8"?>
<svg width="12px" height="12px" viewBox="0 0 12 12" version="1.1" xmlns="http://www.w3.org/2000/svg" xmlns:xlink="http://www.w3.org/1999/xlink">
    <title>02 icon/占位</title>
    <g id="工作概览-0916" stroke="none" stroke-width="1" fill="none" fill-rule="evenodd">
        <g id="Qualitis系统-工作概览-一屏" transform="translate(-18.000000, -85.000000)" fill="#93949B" fill-rule="nonzero">
            <g id="01-导航/一级标题/选中" transform="translate(0.000000, 64.000000)">
                <g id="02-icon/占位" transform="translate(17.000000, 20.000000)">
                    <path d="M9.58333333,11.9583333 C9.76742825,11.9583333 9.91666667,12.1075718 9.91666667,12.2916667 L9.91666667,12.5 C9.91666667,12.6840949 9.76742825,12.8333333 9.58333333,12.8333333 L4.41666667,12.8333333 C4.23257175,12.8333333 4.08333333,12.6840949 4.08333333,12.5 L4.08333333,12.2916667 C4.08333333,12.1075718 4.23257175,11.9583333 4.41666667,11.9583333 L9.58333333,11.9583333 Z M12.5,1.16666667 C12.6840949,1.16666667 12.8333333,1.31590508 12.8333333,1.5 L12.8333333,10.1666667 C12.8333333,10.3507616 12.6840949,10.5 12.5,10.5 L1.5,10.5 C1.31590508,10.5 1.16666667,10.3507616 1.16666667,10.1666667 L1.16666667,1.5 C1.16666667,1.31590508 1.31590508,1.16666667 1.5,1.16666667 L12.5,1.16666667 Z M11.9583333,2.04166667 L2.04166667,2.04166667 L2.04166667,9.625 L11.9583333,9.625 L11.9583333,2.04166667 Z M4.625,4.66666667 C4.80909492,4.66666667 4.95833333,4.81590508 4.95833333,5 L4.95833333,7.83333333 C4.95833333,8.01742825 4.80909492,8.16666667 4.625,8.16666667 L4.41666667,8.16666667 C4.23257175,8.16666667 4.08333333,8.01742825 4.08333333,7.83333333 L4.08333333,5 C4.08333333,4.81590508 4.23257175,4.66666667 4.41666667,4.66666667 L4.625,4.66666667 Z M9.58333333,4.66666667 C9.76742825,4.66666667 9.91666667,4.81590508 9.91666667,5 L9.91666667,7.83333333 C9.91666667,8.01742825 9.76742825,8.16666667 9.58333333,8.16666667 L9.375,8.16666667 C9.19090508,8.16666667 9.04166667,8.01742825 9.04166667,7.83333333 L9.04166667,5 C9.04166667,4.81590508 9.19090508,4.66666667 9.375,4.66666667 L9.58333333,4.66666667 Z M7.10416667,3.5 C7.28826158,3.5 7.4375,3.64923842 7.4375,3.83333333 L7.4375,7.83333333 C7.4375,8.01742825 7.28826158,8.16666667 7.10416667,8.16666667 L6.89583333,8.16666667 C6.71173842,8.16666667 6.5625,8.01742825 6.5625,7.83333333 L6.5625,3.83333333 C6.5625,3.64923842 6.71173842,3.5 6.89583333,3.5 L7.10416667,3.5 Z" id="形状结合"></path>
                </g>
            </g>
        </g>
    </g>
</svg>