<?xml version="1.0" encoding="UTF-8"?>
<svg width="14px" height="14px" viewBox="0 0 14 14" version="1.1" xmlns="http://www.w3.org/2000/svg" xmlns:xlink="http://www.w3.org/1999/xlink">
    <title>ICON/通用/line/picture备份 5</title>
    <g id="页面-1" stroke="none" stroke-width="1" fill="none" fill-rule="evenodd">
        <g id="微众PC端组件库icon绘制规范" transform="translate(-876.000000, -697.000000)">
            <g id="ICON/通用/line/picture备份-5" transform="translate(876.000000, 697.000000)">
                <rect id="矩形" x="0" y="0" width="14" height="14"></rect>
                <g id="编组" transform="translate(7.000000, 7.000000) scale(1, -1) translate(-7.000000, -7.000000) translate(2.042969, 0.582825)" fill="#5384FF" fill-rule="nonzero">
                    <path d="M9.91406202,0.291666667 L9.91406202,3.71747156 L9.91406202,12.5426839 C9.91406202,12.7037669 9.78347841,12.8343505 9.62239536,12.8343505 L0.291666667,12.8343505 C0.130583615,12.8343505 2.97282741e-16,12.7037669 0,12.5426839 L0,0.291666667 C-1.97269844e-17,0.130583615 0.130583615,-5.81032187e-16 0.291666667,0 L9.62239536,0 C9.78347841,2.59206746e-17 9.91406202,0.130583615 9.91406202,0.291666667 Z M9.03861434,0.874925262 L0.874864345,0.874925262 L0.874864345,11.9588419 L9.03861434,11.9588419 L9.03861434,0.874925262 Z" id="矩形"></path>
                    <path d="M7.58203101,8.16717526 L7.58203101,8.45884193 C7.58203101,8.61992498 7.4514474,8.7505086 7.29036434,8.7505086 L2.62369768,8.7505086 C2.46261463,8.7505086 2.33203101,8.61992498 2.33203101,8.45884193 L2.33203101,8.16717526 C2.33203101,8.00609221 2.46261463,7.8755086 2.62369768,7.8755086 L7.29036434,7.8755086 C7.4514474,7.8755086 7.58203101,8.00609221 7.58203101,8.16717526 Z" id="直线"></path>
                    <path d="M7.58203101,6.27134193 L7.58203101,6.5630086 C7.58203101,6.72409165 7.4514474,6.85467526 7.29036434,6.85467526 L2.62369768,6.85467526 C2.46261463,6.85467526 2.33203101,6.72409165 2.33203101,6.5630086 L2.33203101,6.27134193 C2.33203101,6.11025888 2.46261463,5.97967526 2.62369768,5.97967526 L7.29036434,5.97967526 C7.4514474,5.97967526 7.58203101,6.11025888 7.58203101,6.27134193 Z" id="直线备份-2"></path>
                    <path d="M5.24869768,4.3755086 L5.24869768,4.66717526 C5.24869768,4.82825831 5.11811406,4.95884193 4.95703101,4.95884193 L2.62369768,4.95884193 C2.46261463,4.95884193 2.33203101,4.82825831 2.33203101,4.66717526 L2.33203101,4.3755086 C2.33203101,4.21442554 2.46261463,4.08384193 2.62369768,4.08384193 L4.95703101,4.08384193 C5.11811406,4.08384193 5.24869768,4.21442554 5.24869768,4.3755086 Z" id="直线备份"></path>
                </g>
            </g>
        </g>
    </g>
</svg>