<?xml version="1.0" encoding="UTF-8"?>
<svg width="24px" height="24px" viewBox="0 0 24 24" version="1.1" xmlns="http://www.w3.org/2000/svg" xmlns:xlink="http://www.w3.org/1999/xlink">
    <title>02 icon/侧边导航/引擎配置</title>
    <g id="02-icon/侧边导航/引擎配置" stroke="none" stroke-width="1" fill="none" fill-rule="evenodd">
        <path d="M21.2535364,15.4360722 L21.4967758,15.8729184 C21.6311132,16.1141819 21.5444325,16.4186666 21.303169,16.553004 L12.158768,21.6446781 C12.006378,21.7295301 11.8207843,21.7288368 11.6690325,21.6428487 L2.68737237,16.5535168 C2.44711921,16.4173807 2.36271566,16.1122569 2.49885174,15.8720037 L2.74534793,15.4369869 C2.88148424,15.1967341 3.1866078,15.1123304 3.4268611,15.248466 L11.9188101,20.0603026 L20.5734276,15.2424238 C20.8147108,15.1081601 21.1191664,15.1948482 21.2535364,15.4360722 Z M21.2535364,11.1934936 L21.4967758,11.6303398 C21.6311132,11.8716033 21.5444325,12.176088 21.303169,12.3104254 L12.158768,17.4020994 C12.006378,17.4869514 11.8207843,17.4862581 11.6690325,17.4002701 L2.68737237,12.3109381 C2.44711921,12.174802 2.36271566,11.8696782 2.49885174,11.6294251 L2.74534793,11.1944083 C2.88148424,10.9541554 3.1866078,10.8697518 3.4268611,11.0058874 L11.9188101,15.8177239 L20.5734276,10.9998451 C20.8147108,10.8655814 21.1191664,10.9522695 21.2535364,11.1934936 Z M12.3381019,2.24480387 L21.5031841,7.44208436 C21.7433921,7.57830009 21.8276945,7.88345182 21.6914788,8.12365983 C21.6462353,8.20344393 21.5799178,8.26924601 21.4997831,8.31386563 L12.1514147,13.5191104 C11.9990247,13.6039623 11.813431,13.603269 11.6616792,13.517281 L2.489506,8.31999744 C2.24925284,8.18386135 2.16484928,7.87873759 2.30098537,7.63848444 C2.34625716,7.55858871 2.41265756,7.49270379 2.49290368,7.44805601 L11.848363,2.24281433 C12.0007817,2.15801073 12.1863771,2.1587647 12.3381019,2.24480387 Z M12.0865896,3.82625676 L4.77793395,7.89212075 L11.9126414,11.9353573 L19.2149331,7.86878623 L12.0865896,3.82625676 Z" id="形状结合" fill="#000000" fill-rule="nonzero"></path>
    </g>
</svg>