<?xml version="1.0" encoding="UTF-8"?>
<svg width="14px" height="14px" viewBox="0 0 14 14" version="1.1" xmlns="http://www.w3.org/2000/svg" xmlns:xlink="http://www.w3.org/1999/xlink">
    <title>02 icon/占位</title>
    <g id="工作概览-0916" stroke="none" stroke-width="1" fill="none" fill-rule="evenodd">
        <g id="Qualitis系统-工作概览-一屏" transform="translate(-197.000000, -187.000000)" fill="#646670">
            <g id="dropdown_basic_hover_active备份-7" transform="translate(180.000000, 48.000000)">
                <g id="编组-4" transform="translate(0.000000, 128.000000)">
                    <g id="02-icon/占位" transform="translate(16.000000, 10.000000)">
                        <path d="M7,1.33333333 C7.18409492,1.33333333 7.33333333,1.48257175 7.33333333,1.66666667 L7.33333333,2 C7.33333333,2.18409492 7.18409492,2.33333333 7,2.33333333 L2.33333333,2.33333333 L2.33333333,13.6663333 L7,13.6666667 C7.18409492,13.6666667 7.33333333,13.8159051 7.33333333,14 L7.33333333,14.3333333 C7.33333333,14.5174282 7.18409492,14.6666667 7,14.6666667 L1.66666667,14.6666667 C1.48257175,14.6666667 1.33333333,14.5174282 1.33333333,14.3333333 L1.33333333,1.66666667 C1.33333333,1.48257175 1.48257175,1.33333333 1.66666667,1.33333333 L7,1.33333333 Z M10.8799885,4.11236893 L14.5333735,7.76575396 C14.6635483,7.89592873 14.6635483,8.10698372 14.5333735,8.23715848 L10.8799885,11.8905435 C10.7498137,12.0207183 10.5387587,12.0207183 10.408584,11.8905435 L10.1728817,11.6548413 C10.0427263,11.524658 10.0427201,11.3136138 10.1728677,11.1834228 L12.8563333,8.49933333 L5,8.5 C4.81590508,8.5 4.66666667,8.35076158 4.66666667,8.16666667 L4.66666667,7.83333333 C4.66666667,7.64923842 4.81590508,7.5 5,7.5 L12.8523333,7.49933333 L10.1728653,4.81949211 C10.0427224,4.68929829 10.0427298,4.47825595 10.1728817,4.34807119 L10.408584,4.11236893 C10.5387587,3.98219416 10.7498137,3.98219416 10.8799885,4.11236893 Z" id="形状结合"></path>
                    </g>
                </g>
            </g>
        </g>
    </g>
</svg>