<?xml version="1.0" encoding="UTF-8"?>
<svg width="24px" height="24px" viewBox="0 0 24 24" version="1.1" xmlns="http://www.w3.org/2000/svg" xmlns:xlink="http://www.w3.org/1999/xlink">
    <title>02 icon/侧边导航/IMS</title>
    <defs>
        <linearGradient x1="39.1006013%" y1="50%" x2="100%" y2="50%" id="linearGradient-1">
            <stop stop-color="#0F1222" offset="0%"></stop>
            <stop stop-color="#0F1222" stop-opacity="0" offset="100%"></stop>
        </linearGradient>
        <linearGradient x1="100%" y1="50%" x2="0%" y2="50%" id="linearGradient-2">
            <stop stop-color="#0F1222" offset="0%"></stop>
            <stop stop-color="#0F1222" stop-opacity="0" offset="100%"></stop>
        </linearGradient>
    </defs>
    <g id="02-icon/侧边导航/IMS" stroke="none" stroke-width="1" fill="none" fill-rule="evenodd">
        <g id="编组">
            <rect id="矩形" x="0" y="0" width="24" height="24"></rect>
            <g id="Logo/Logo_White&amp;Yellow" transform="translate(0.000000, 5.720000)" fill-rule="nonzero">
                <g id="Logo/IMS-Logo">
                    <polygon id="Fill-4" fill="url(#linearGradient-1)" points="24 2.92202436 5.18721218 2.4325153 5.15977121 1.91495445 24 0.0236835846"></polygon>
                    <polygon id="Fill-7" fill="url(#linearGradient-2)" points="0 0.974529349 0 2.48504984 2.85051857 2.46897555 2.87752386 1.95542015"></polygon>
                    <path d="M3.97668326,2.43504109 L4.12839285,2.43504109 L4.12839285,1.90930815 L3.97668326,1.90930815 L3.97668326,2.43504109 Z M4.93250423,1.12070875 L5.03566675,3.11849391 L3.06935878,3.11849391 L3.1725213,1.12070875 L4.93250423,1.12070875 Z M4.1004715,0 C4.59051344,0 4.98770802,0.370880174 4.98770802,0.828349947 L3.21323497,0.828349947 C3.21323497,0.370880174 3.61042955,0 4.1004715,0 Z M3.03973757,3.31339978 L5.06528795,3.31339978 L5.5632128,12.5714286 L2.54181274,12.5714286 L3.03973757,3.31339978 Z M13.9286944,3.31339978 L15.8263812,3.31339978 L15.8263812,12.5714286 L14.0448939,12.5714286 L14.0448939,6.44287069 L11.6824602,11.0066674 L10.7142163,11.0066674 L8.35183349,6.44287069 L8.35183349,12.5714286 L6.57034616,12.5714286 L6.57034616,3.31339978 L8.48091569,3.31339978 L11.1918968,8.58137244 L13.9286944,3.31339978 Z M22.7953895,5.75916523 C22.7362857,5.69955383 22.6286995,5.61834035 22.4727326,5.51588485 C22.3165624,5.41342929 22.1267493,5.31318544 21.9033949,5.21494748 C21.6797864,5.11691522 21.4372221,5.03369583 21.1758543,4.96523785 C20.9143339,4.89703704 20.6485956,4.86283376 20.3787916,4.86283376 C19.8979826,4.86283376 19.5393959,4.95248234 19.3033365,5.13172806 C19.0670738,5.31097379 18.9490695,5.56289506 18.9490695,5.88723464 C18.9490695,6.07506979 18.9933338,6.23096469 19.0819133,6.35455938 C19.1704927,6.47841125 19.298966,6.58724452 19.4677904,6.6811106 C19.6364623,6.77513103 19.8493986,6.86040775 20.1067516,6.93719799 C20.3639522,7.01403964 20.6613006,7.09525312 20.9987462,7.18052984 C21.4372221,7.30016412 21.8358042,7.42823353 22.1943909,7.56463517 C22.5528251,7.70129393 22.8564753,7.87200172 23.1053413,8.07686131 C23.354055,8.28177236 23.5460025,8.52726445 23.6810315,8.81313181 C23.8158573,9.09925629 23.883448,9.45142141 23.883448,9.86957576 C23.883448,10.3561366 23.7927341,10.7723364 23.6114588,11.1180723 C23.4299294,11.4637569 23.1876191,11.7435036 22.883969,11.9567469 C22.580268,12.1702473 22.226001,12.3260908 21.8211172,12.424123 C21.4162842,12.5222067 20.9944265,12.5714286 20.5558997,12.5714286 C19.8809579,12.5714286 19.2147571,12.4689731 18.5568399,12.264062 C17.8989228,12.0592538 17.3083931,11.7691175 16.7855558,11.3933958 L17.55731,9.86957576 C17.6332352,9.94636594 17.7701955,10.0468156 17.9684955,10.1705131 C18.1665923,10.2943135 18.4006697,10.4181654 18.6707278,10.5418629 C18.9405825,10.6656633 19.2400655,10.7703305 19.569024,10.8555558 C19.8979826,10.9409868 20.2352757,10.9835738 20.5812589,10.9835738 C21.5427754,10.9835738 22.0235845,10.6720926 22.0235845,10.0488214 C22.0235845,9.84391044 21.9685972,9.67330553 21.8590798,9.53664672 C21.74941,9.40019366 21.5933923,9.28055938 21.3909758,9.17810383 C21.1885085,9.07564833 20.9438096,8.98183366 20.6571334,8.89635117 C20.3702539,8.81117733 20.0497823,8.72152873 19.6955661,8.62745689 C19.2653739,8.50802831 18.8921002,8.37779868 18.5757958,8.23692238 C18.2594914,8.09604603 17.9957859,7.93181889 17.7850349,7.74393232 C17.5740807,7.55625151 17.4159285,7.33416168 17.3105784,7.07807434 C17.205025,6.82193554 17.1524262,6.51904369 17.1524262,6.16893587 C17.1524262,5.70798895 17.2366351,5.29821831 17.4055104,4.93962397 C17.5740807,4.58113252 17.8082089,4.28240679 18.1076918,4.04329248 C18.4070222,3.8043839 18.7549367,3.62292654 19.151486,3.49907469 C19.5478829,3.37542857 19.9739079,3.31339978 20.4294085,3.31339978 C21.0620172,3.31339978 21.6440091,3.41384939 22.1753841,3.61433715 C22.70681,3.81503064 23.1705943,4.05193331 23.5671437,4.32499373 L22.7953895,5.75916523 Z" id="Fill-11" fill="#0F1222"></path>
                </g>
            </g>
        </g>
    </g>
</svg>