<?xml version="1.0" encoding="UTF-8"?>
<svg width="14px" height="14px" viewBox="0 0 14 14" version="1.1" xmlns="http://www.w3.org/2000/svg" xmlns:xlink="http://www.w3.org/1999/xlink">
    <title>02 icon/占位</title>
    <g id="工作概览-0916" stroke="none" stroke-width="1" fill="none" fill-rule="evenodd">
        <g id="Qualitis系统-工作概览-一屏" transform="translate(-197.000000, -155.000000)" fill="#646670" fill-rule="nonzero">
            <g id="dropdown_basic_hover_active备份-7" transform="translate(180.000000, 48.000000)">
                <g id="编组-4" transform="translate(0.000000, 96.000000)">
                    <g id="02-icon/占位" transform="translate(16.000000, 10.000000)">
                        <path d="M14.3333333,1.33333333 C14.5174282,1.33333333 14.6666667,1.48257175 14.6666667,1.66666667 L14.6666667,14.3333333 C14.6666667,14.5174282 14.5174282,14.6666667 14.3333333,14.6666667 L1.66666667,14.6666667 C1.48257175,14.6666667 1.33333333,14.5174282 1.33333333,14.3333333 L1.33333333,1.66666667 C1.33333333,1.48257175 1.48257175,1.33333333 1.66666667,1.33333333 L14.3333333,1.33333333 Z M13.6666667,2.33333333 L2.33333333,2.33333333 L2.33333333,13.6666667 L13.6666667,13.6666667 L13.6666667,2.33333333 Z M7,5.5 C7.18409492,5.5 7.33333333,5.64923842 7.33333333,5.83333333 L7.33333333,6.16666667 C7.33333333,6.35076158 7.18409492,6.5 7,6.5 L4.5,6.5 L4.5,7.5 L7,7.5 C7.18409492,7.5 7.33333333,7.64923842 7.33333333,7.83333333 L7.33333333,8.16666667 C7.33333333,8.35076158 7.18409492,8.5 7,8.5 L4.5,8.5 L4.5,9.5 L7,9.5 C7.18409492,9.5 7.33333333,9.64923842 7.33333333,9.83333333 L7.33333333,10.1666667 C7.33333333,10.3507616 7.18409492,10.5 7,10.5 L3.83333333,10.5 C3.64923842,10.5 3.5,10.3507616 3.5,10.1666667 L3.5,5.83333333 C3.5,5.64923842 3.64923842,5.5 3.83333333,5.5 L7,5.5 Z M9.0026,5.5 C9.10593333,5.5 9.20393333,5.548 9.2666,5.63 L9.2666,5.63 L11.5019333,8.53466667 L11.5019333,5.83333333 C11.5019333,5.65 11.6512667,5.5 11.8352667,5.5 L11.8352667,5.5 L12.1686,5.5 C12.3526,5.5 12.5019333,5.65 12.5019333,5.83333333 L12.5019333,5.83333333 L12.5019333,10.1666667 C12.5019333,10.3506667 12.3526,10.5 12.1686,10.5 L12.1686,10.5 L11.6659333,10.5 C11.5626,10.5 11.4646,10.452 11.4026,10.3706667 L11.4026,10.3706667 L9.1666,7.466 L9.1666,10.1666667 C9.1666,10.3506667 9.01726667,10.5 8.83326667,10.5 L8.83326667,10.5 L8.49993333,10.5 C8.31593333,10.5 8.1666,10.3506667 8.1666,10.1666667 L8.1666,10.1666667 L8.1666,5.83333333 C8.1666,5.65 8.31593333,5.5 8.49993333,5.5 L8.49993333,5.5 Z" id="形状结合"></path>
                    </g>
                </g>
            </g>
        </g>
    </g>
</svg>