<?xml version="1.0" encoding="UTF-8"?>
<svg width="12px" height="12px" viewBox="0 0 12 12" version="1.1" xmlns="http://www.w3.org/2000/svg" xmlns:xlink="http://www.w3.org/1999/xlink">
    <title>02 icon/占位 3</title>
    <g id="工作概览-0916" stroke="none" stroke-width="1" fill="none" fill-rule="evenodd">
        <g id="01-导航/一级标题/加icon-默认备份" transform="translate(-18.000000, -21.000000)" fill="#93949B" fill-rule="nonzero">
            <g id="02-icon/占位" transform="translate(17.000000, 20.000000)">
                <path d="M5.5,7 C5.68409492,7 5.83333333,7.14923842 5.83333333,7.33333333 L5.83333333,12.5 C5.83333333,12.6840949 5.68409492,12.8333333 5.5,12.8333333 L1.5,12.8333333 C1.31590508,12.8333333 1.16666667,12.6840949 1.16666667,12.5 L1.16666667,7.33333333 C1.16666667,7.14923842 1.31590508,7 1.5,7 L5.5,7 Z M12.5,11.9583333 C12.6840949,11.9583333 12.8333333,12.1075718 12.8333333,12.2916667 L12.8333333,12.5 C12.8333333,12.6840949 12.6840949,12.8333333 12.5,12.8333333 L7.33333333,12.8333333 C7.14923842,12.8333333 7,12.6840949 7,12.5 L7,12.2916667 C7,12.1075718 7.14923842,11.9583333 7.33333333,11.9583333 L12.5,11.9583333 Z M4.95833333,7.875 L2.04166667,7.875 L2.04166667,11.9583333 L4.95833333,11.9583333 L4.95833333,7.875 Z M12.5,9.47916667 C12.6840949,9.47916667 12.8333333,9.62840508 12.8333333,9.8125 L12.8333333,10.0208333 C12.8333333,10.2049282 12.6840949,10.3541667 12.5,10.3541667 L7.33333333,10.3541667 C7.14923842,10.3541667 7,10.2049282 7,10.0208333 L7,9.8125 C7,9.62840508 7.14923842,9.47916667 7.33333333,9.47916667 L12.5,9.47916667 Z M12.5,7 C12.6840949,7 12.8333333,7.14923842 12.8333333,7.33333333 L12.8333333,7.54166667 C12.8333333,7.72576158 12.6840949,7.875 12.5,7.875 L7.33333333,7.875 C7.14923842,7.875 7,7.72576158 7,7.54166667 L7,7.33333333 C7,7.14923842 7.14923842,7 7.33333333,7 L12.5,7 Z M12.5,1.16666667 C12.6840949,1.16666667 12.8333333,1.31590508 12.8333333,1.5 L12.8333333,5.5 C12.8333333,5.68409492 12.6840949,5.83333333 12.5,5.83333333 L1.5,5.83333333 C1.31590508,5.83333333 1.16666667,5.68409492 1.16666667,5.5 L1.16666667,1.5 C1.16666667,1.31590508 1.31590508,1.16666667 1.5,1.16666667 L12.5,1.16666667 Z M11.9583333,2.04166667 L2.04166667,2.04166667 L2.04166667,4.95833333 L11.9583333,4.95833333 L11.9583333,2.04166667 Z" id="形状结合"></path>
            </g>
        </g>
    </g>
</svg>