<?xml version="1.0" encoding="UTF-8"?>
<svg width="12px" height="12px" viewBox="0 0 12 12" version="1.1" xmlns="http://www.w3.org/2000/svg" xmlns:xlink="http://www.w3.org/1999/xlink">
    <title>02 icon/占位</title>
    <g id="规则组与调度任务-0711" stroke="none" stroke-width="1" fill="none" fill-rule="evenodd">
        <g id="Qualitis系统-我的项目-详情" transform="translate(-549.000000, -324.000000)">
            <g id="编组-4" transform="translate(236.000000, 304.000000)">
                <g id="按钮2备份-3" transform="translate(296.000000, 10.000000)">
                    <g id="编组" transform="translate(16.000000, 9.000000)">
                        <g id="编组-2" transform="translate(-0.000001, -0.000001)">
                            <rect id="矩形" x="6.67766457e-07" y="6.6776596e-07" width="14" height="14"></rect>
                            <g id="link" transform="translate(7.128971, 7.128971) rotate(-315.000000) translate(-7.128971, -7.128971) translate(3.685735, 0.490319)" fill="#93949B" fill-rule="nonzero">
                                <path d="M0.58423967,7.57983315 C0.727424605,7.57967244 0.846511219,7.68283173 0.871207196,7.81889179 L0.87572527,7.87149994 L0.874507063,9.83382187 C0.874507063,11.2523552 2.02445552,12.4023036 3.44298883,12.4023036 C4.81980057,12.4023036 5.94359422,11.3190044 6.00850872,9.95826713 L6.00915003,7.87149999 C6.00928918,7.71045197 6.13985829,7.57992298 6.30090634,7.57983315 L6.59373967,7.57983315 C6.75476894,7.57997108 6.88533027,7.71047078 6.88554405,7.87149997 L6.88647059,9.83382187 C6.88647059,11.7356043 5.34477129,13.2773036 3.44298883,13.2773036 C1.58442869,13.2773036 0.0697702969,11.8048852 0.00188218814,9.962917 L9.44364103e-07,7.87149988 C-0.000359819962,7.72831521 0.102684363,7.60913591 0.238721266,7.58431762 L0.291406337,7.57983315 L0.58423967,7.57983315 Z M3.5850223,4.16029261 C3.74610536,4.16029261 3.87668897,4.29087623 3.87668897,4.45195928 L3.87668897,8.82470739 C3.87668897,8.98579044 3.74610536,9.11637405 3.5850223,9.11637405 L3.29335564,9.11637405 C3.13227258,9.11637405 3.00168897,8.98579044 3.00168897,8.82470739 L3.00168897,4.45195928 C3.00168897,4.29087623 3.13227258,4.16029261 3.29335564,4.16029261 L3.5850223,4.16029261 Z M3.44298883,-1.98951966e-13 C5.30154896,-1.98951966e-13 6.81620735,1.47241839 6.88409546,3.31438663 L6.88647059,3.44348176 L6.88554405,5.40580367 C6.88535403,5.54894072 6.78217334,5.66795571 6.64615064,5.69273311 L6.59373967,5.6974703 L6.30090634,5.6974703 C6.15775252,5.69739061 6.03868082,5.59424774 6.01389005,5.45821892 L6.00915003,5.40580365 L6.00850872,3.3190365 C5.94359422,1.95829919 4.81980057,0.875 3.44298883,0.875 C2.06617709,0.875 0.942383429,1.95829919 0.877468934,3.3190365 L0.874507063,3.44348176 L0.87572527,5.40580369 L0.871207196,5.45841185 C0.849598217,5.57746439 0.755721405,5.6713273 0.636667122,5.69282504 L0.58423967,5.6974703 L0.291406337,5.6974703 L0.238721266,5.69298601 C0.119688976,5.67127001 0.0259167371,5.57730885 0.00457587675,5.45823534 L1.89369644e-06,5.40580375 L0.00188218814,3.31438663 C0.0697702969,1.47241839 1.58442869,-1.98951966e-13 3.44298883,-1.98951966e-13 Z" id="形状"></path>
                            </g>
                        </g>
                    </g>
                </g>
            </g>
        </g>
    </g>
</svg>