<?xml version="1.0" encoding="UTF-8"?>
<svg width="14px" height="14px" viewBox="0 0 14 14" version="1.1" xmlns="http://www.w3.org/2000/svg" xmlns:xlink="http://www.w3.org/1999/xlink">
    <title>02 icon/占位</title>
    <g id="工作概览-0916" stroke="none" stroke-width="1" fill="none" fill-rule="evenodd">
        <g id="Qualitis系统-工作概览-一屏" transform="translate(-197.000000, -121.000000)" fill="#646670" fill-rule="nonzero">
            <g id="dropdown_basic_hover_active备份-7" transform="translate(180.000000, 48.000000)">
                <g id="编组-4" transform="translate(0.000000, 64.000000)">
                    <g id="02-icon/占位" transform="translate(16.000000, 8.000000)">
                        <path d="M8,1.49366914 C10.0250441,1.49366914 11.6666667,3.13529172 11.6666667,5.1603358 C11.6666667,7.12005588 10.129247,8.72069235 8.19473283,8.82191997 L8.00686204,8.82692074 L7.84585118,8.8290834 C4.98594775,8.90768159 2.68012187,11.1672718 2.51187149,13.9883662 C2.51070842,14.0078677 2.50939608,14.0656378 2.50793448,14.1616764 C2.50511126,14.343743 2.3567282,14.489885 2.17463974,14.489885 L1.83960178,14.489885 C1.65552602,14.4898503 1.50630314,14.3406275 1.50630314,14.1565517 L1.50633838,14.151705 C1.50740541,14.0783351 1.50880211,14.0246377 1.51052848,13.9906128 C1.64780346,11.2850705 3.44198767,9.0098875 5.90906863,8.17170647 C4.95686136,7.51076755 4.33333333,6.40836806 4.33333333,5.1603358 C4.33333333,3.13529172 5.97495592,1.49366914 8,1.49366914 Z M13.6271251,12 C13.81122,12 13.9604584,12.1492384 13.9604584,12.3333333 C13.9604584,12.403733 13.9381693,12.4723252 13.8967861,12.5292773 L12.6474201,14.2486734 C12.5392032,14.3976031 12.3307448,14.4306073 12.1818151,14.3223905 L11.9121541,14.1264465 C11.7844441,14.0337661 11.7419519,13.8673729 11.8005658,13.7279368 L11.8385268,13.6609067 L11.8385268,13.6609067 L12.3186667,13.0005936 L9.13333333,13.0000562 C8.94926038,12.9999689 8.80005624,12.8507396 8.8,12.6666667 L8.8,12.3333333 C8.8,12.1492384 8.94923842,12 9.13333333,12 L13.6271251,12 Z M10.6328935,8.86261065 L10.9025545,9.05855463 C11.0515494,9.16668172 11.0845537,9.37514018 10.9763368,9.52406985 L10.9761818,9.52409437 L10.4960419,10.1844075 L13.6813753,10.1849449 C13.8654482,10.1850322 14.0146524,10.3342615 14.0147086,10.5183344 L14.0147086,10.8516678 C14.0147086,11.0357627 13.8654702,11.1850011 13.6813753,11.1850011 L9.18758351,11.1850011 C9.00348859,11.1850011 8.85425018,11.0357627 8.85425018,10.8516678 C8.85425018,10.7812681 8.87653932,10.7126759 8.91792249,10.6557238 L10.1672885,8.93632769 C10.2755054,8.78739802 10.4839638,8.75439378 10.6328935,8.86261065 Z M8,2.49366914 C6.52724067,2.49366914 5.33333333,3.68757647 5.33333333,5.1603358 C5.33333333,6.63309513 6.52724067,7.82700247 8,7.82700247 C9.47275933,7.82700247 10.6666667,6.63309513 10.6666667,5.1603358 C10.6666667,3.68757647 9.47275933,2.49366914 8,2.49366914 Z" id="形状结合"></path>
                    </g>
                </g>
            </g>
        </g>
    </g>
</svg>