<?xml version="1.0" encoding="UTF-8"?>
<svg width="14px" height="14px" viewBox="0 0 14 14" version="1.1" xmlns="http://www.w3.org/2000/svg" xmlns:xlink="http://www.w3.org/1999/xlink">
    <title>编组 14</title>
    <g id="工作概览-0916" stroke="none" stroke-width="1" fill="none" fill-rule="evenodd">
        <g id="编组-14">
            <rect id="矩形" x="0" y="0" width="14" height="14"></rect>
            <g id="02-icon/占位">
                <rect id="矩形" x="0" y="0" width="14" height="14"></rect>
                <g id="编组" transform="translate(2.042969, 0.582825)" fill="#93949B" fill-rule="nonzero">
                    <path d="M6.28508121,0.0973434077 L9.81614293,3.61979134 C9.87883122,3.6823267 9.91406202,3.7672347 9.91406202,3.85578126 L9.91406202,12.5010172 C9.91406202,12.6851121 9.76482361,12.8343505 9.58072869,12.8343505 L0.333333333,12.8343505 C0.149238417,12.8343505 -2.55010631e-16,12.6851121 0,12.5010172 L0,0.333333333 C-2.2545125e-17,0.149238417 0.149238417,-2.43738069e-16 0.333333333,0 L6.04966697,0 C6.13793142,-5.15814277e-16 6.22259265,0.0350072837 6.28508121,0.0973434077 Z M5.82561434,0.874925262 L0.874864345,0.874925262 L0.874864345,11.9588419 L9.03861434,11.9588419 L9.03861434,4.0797586 L5.82561434,0.874925262 Z" id="矩形"></path>
                    <path d="M5.97786434,0 L5.97786434,4.07334193 L9.62369768,4.07390297 L9.62369768,4.94890297 L5.43619768,4.94890297 C5.25210276,4.94890297 5.10286434,4.79966455 5.10286434,4.61556964 L5.10286434,0 L5.10286434,0 L5.97786434,0 Z" id="路径"></path>
                    <path d="M7.33116029,6.96642803 L7.33116029,7.29976136 C7.33116029,7.48385628 7.18192187,7.6330947 6.99782696,7.6330947 L4.16449362,7.6330947 C3.98039871,7.6330947 3.83116029,7.48385628 3.83116029,7.29976136 L3.83116029,6.96642803 C3.83116029,6.78233311 3.98039871,6.6330947 4.16449362,6.6330947 L6.99782696,6.6330947 C7.18192187,6.6330947 7.33116029,6.78233311 7.33116029,6.96642803 Z" id="直线"></path>
                    <path d="M7.33116029,9.29976136 L7.33116029,9.6330947 C7.33116029,9.81718961 7.18192187,9.96642803 6.99782696,9.96642803 L4.16449362,9.96642803 C3.98039871,9.96642803 3.83116029,9.81718961 3.83116029,9.6330947 L3.83116029,9.29976136 C3.83116029,9.11566645 3.98039871,8.96642803 4.16449362,8.96642803 L6.99782696,8.96642803 C7.18192187,8.96642803 7.33116029,9.11566645 7.33116029,9.29976136 Z" id="直线备份-2"></path>
                    <path d="M3.08116029,6.96642803 L3.08116029,7.29976136 C3.08116029,7.48385628 2.93192187,7.6330947 2.74782696,7.6330947 L2.41449362,7.6330947 C2.23039871,7.6330947 2.08116029,7.48385628 2.08116029,7.29976136 L2.08116029,6.96642803 C2.08116029,6.78233311 2.23039871,6.6330947 2.41449362,6.6330947 L2.74782696,6.6330947 C2.93192187,6.6330947 3.08116029,6.78233311 3.08116029,6.96642803 Z" id="直线备份"></path>
                    <path d="M3.08116029,9.29976136 L3.08116029,9.6330947 C3.08116029,9.81718961 2.93192187,9.96642803 2.74782696,9.96642803 L2.41449362,9.96642803 C2.23039871,9.96642803 2.08116029,9.81718961 2.08116029,9.6330947 L2.08116029,9.29976136 C2.08116029,9.11566645 2.23039871,8.96642803 2.41449362,8.96642803 L2.74782696,8.96642803 C2.93192187,8.96642803 3.08116029,9.11566645 3.08116029,9.29976136 Z" id="直线备份-3"></path>
                </g>
            </g>
        </g>
    </g>
</svg>