<?xml version="1.0" standalone="no"?><!DOCTYPE svg PUBLIC "-//W3C//DTD SVG 1.1//EN" "http://www.w3.org/Graphics/SVG/1.1/DTD/svg11.dtd"><svg t="1637230316297" class="icon" viewBox="0 0 1024 1024" version="1.1" xmlns="http://www.w3.org/2000/svg" p-id="7100" xmlns:xlink="http://www.w3.org/1999/xlink" width="200" height="200"><defs><style type="text/css"></style></defs><path d="M383.977281 638.040122C248.113773 629.720642 131.961033 595.162802 63.99728 546.909818V639.960002c0 63.420036 138.359353 116.088744 319.980001 126.200113v63.868008c-135.863509-8.31948-252.016249-42.813324-319.980001-91.130304V831.948003H0.00128V223.986001C0.00128 100.281732 200.564745 0 447.973282 0s447.972002 100.281732 447.972001 223.986001v202.099369h-63.996V339.434785C753.554183 404.454722 610.907098 447.972002 447.973282 447.972002s-305.580901-43.51728-383.976002-108.537217V447.972002c0 63.420036 138.359353 116.088744 319.980001 126.200112v63.868008zM447.973282 1023.936004c-247.408537 0-447.972002-85.946628-447.972002-191.988001h63.996c0 70.71558 171.893257 127.992 383.976002 127.992001v63.996zM447.973282 383.976001c212.082745 0 383.976001-71.67552 383.976001-159.99S660.056027 63.996 447.973282 63.996 63.99728 135.671521 63.99728 223.986001 235.890537 383.976001 447.973282 383.976001z m556.893194 419.813762l-44.541216-25.91838c2.495844-13.631148 4.095744-27.51828 4.095744-41.91738a231.665521 231.665521 0 0 0-4.095744-41.91738l44.541216-25.982376a38.589588 38.589588 0 0 0 13.951128-52.476721l-38.07762-66.491844a37.885632 37.885632 0 0 0-52.028748-14.07912l-45.053185 26.23836a227.825761 227.825761 0 0 0-71.547528-42.23736V486.369602c0-21.182676-17.022936-38.3976-38.07762-38.3976h-76.15524a38.269608 38.269608 0 0 0-38.07762 38.3976v32.63796a227.825761 227.825761 0 0 0-71.547529 42.23736l-45.053184-26.23836a37.885632 37.885632 0 0 0-52.028748 14.07912L453.092962 615.641522a38.589588 38.589588 0 0 0 13.951128 52.476721l44.541216 25.91838a231.665521 231.665521 0 0 0-4.095744 41.91738c0 14.3991 1.5999 28.286232 4.095744 41.91738l-44.541216 25.982376a38.589588 38.589588 0 0 0-13.951128 52.47672l38.07762 66.491845a37.885632 37.885632 0 0 0 52.028748 14.07912l45.053184-26.23836c21.054684 18.046872 44.925192 32.765952 71.547529 42.23736v32.63796c0 21.182676 17.022936 38.3976 38.07762 38.3976h76.15524a38.269608 38.269608 0 0 0 38.07762-38.3976v-32.63796a227.825761 227.825761 0 0 0 71.547528-42.23736l45.053185 26.23836a37.949628 37.949628 0 0 0 52.028748-14.07912l38.07762-66.555841a38.589588 38.589588 0 0 0-13.951128-52.47672z m-47.293044 37.821636l-17.534904 29.886132a17.726892 17.726892 0 0 1-23.9985 6.271608l-48.764953-27.646272a175.989001 175.989001 0 0 1-96.185988 54.652585v37.949628c0 9.471408-7.871508 17.214924-17.5989 17.214924h-35.069808a17.406912 17.406912 0 0 1-17.5989-17.27892v-37.885632a175.989001 175.989001 0 0 1-96.185989-54.652585l-48.764952 27.646272a17.726892 17.726892 0 0 1-23.9985-6.271608l-17.534904-29.886132a17.022936 17.022936 0 0 1 6.3996-23.486532l48.95694-27.774264a168.245485 168.245485 0 0 1-9.27942-54.3966c0-19.070808 3.455784-37.245672 9.343416-54.3966l-49.020936-27.774264a17.022936 17.022936 0 0 1-6.3996-23.486533l17.534904-29.886132a17.726892 17.726892 0 0 1 23.9985-6.271608l48.764952 27.646272a175.989001 175.989001 0 0 1 96.185989-54.652584v-37.949628c0-9.535404 7.871508-17.214924 17.5989-17.214924h35.069808c9.727392 0 17.5989 7.67952 17.5989 17.27892v37.885632a175.989001 175.989001 0 0 1 96.185988 54.652584l48.764953-27.646272a17.726892 17.726892 0 0 1 23.9985 6.271608l17.534904 29.886132a17.022936 17.022936 0 0 1-6.3996 23.486533l-48.95694 27.774264c5.75964 17.150928 9.27942 35.325792 9.27942 54.3966 0 19.070808-3.455784 37.245672-9.27942 54.3966l48.95694 27.774264a17.022936 17.022936 0 0 1 6.3996 23.486532zM735.955283 639.960002a95.994 95.994 0 1 0 0 191.988001 95.994 95.994 0 0 0 0-191.988001z m0 127.992001a31.998 31.998 0 1 1 0-63.996 31.998 31.998 0 0 1 0 63.996z" fill="#8a8a8a" p-id="7101"></path></svg>