<?xml version="1.0" standalone="no"?><!DOCTYPE svg PUBLIC "-//W3C//DTD SVG 1.1//EN" "http://www.w3.org/Graphics/SVG/1.1/DTD/svg11.dtd"><svg t="1637229860838" class="icon" viewBox="0 0 1024 1024" version="1.1" xmlns="http://www.w3.org/2000/svg" p-id="5196" xmlns:xlink="http://www.w3.org/1999/xlink" width="200" height="200"><defs><style type="text/css"></style></defs><path d="M515.456 148.48c168.661333-86.186667 330.154667-94.890667 408.746667-7.637333 72.874667 80.938667 56.192 224.213333-29.098667 371.2 85.290667 146.944 101.973333 290.176 29.098667 371.114666-79.104 87.850667-242.261333 78.421333-412.16-9.429333-169.941333 87.850667-333.141333 97.28-412.245334 9.386667C26.922667 802.261333 43.605333 659.029333 128.853333 512 43.605333 365.056 26.922667 221.781333 99.84 140.842667c79.061333-87.850667 242.261333-78.421333 412.16 9.472z m326.314667 443.904l-8.106667 10.666667a995.285333 995.285333 0 0 1-121.813333 130.901333 1010.858667 1010.858667 0 0 1-111.445334 87.210667c117.12 49.706667 217.941333 52.053333 260.394667 4.864 39.253333-43.605333 31.189333-132.48-19.029333-233.642667z m-659.541334 0.085333c-50.261333 101.248-58.24 190.037333-19.029333 233.557334 42.453333 47.146667 143.274667 44.842667 260.394667-4.821334a1016.064 1016.064 0 0 1-111.445334-87.253333 989.184 989.184 0 0 1-129.92-141.482667z m329.813334-344.618666l-6.656 3.968a909.226667 909.226667 0 0 0-136.106667 101.632A888.405333 888.405333 0 0 0 229.546667 512a888.746667 888.746667 0 0 0 139.648 158.549333 905.642667 905.642667 0 0 0 142.805333 105.642667 907.946667 907.946667 0 0 0 142.72-105.642667A888.405333 888.405333 0 0 0 794.410667 512a888.192 888.192 0 0 0-139.648-158.549333A905.642667 905.642667 0 0 0 512 247.893333zM512 384a128 128 0 1 1 0 256 128 128 0 0 1 0-256z m0 85.333333a42.666667 42.666667 0 1 0 0 85.333334 42.666667 42.666667 0 0 0 0-85.333334z m348.8-271.36c-42.453333-47.146667-143.274667-44.842667-260.394667 4.821334 37.76 25.472 75.178667 54.613333 111.445334 87.253333a989.141333 989.141333 0 0 1 129.92 141.525333c50.218667-101.12 58.282667-189.994667 19.029333-233.6z m-697.6 0c-39.253333 43.562667-31.189333 132.437333 18.986667 233.6a990.805333 990.805333 0 0 1 129.962666-141.525333 1010.858667 1010.858667 0 0 1 111.445334-87.210667C306.474667 153.130667 205.653333 150.784 163.2 197.973333z" p-id="5197" fill="#8a8a8a"></path></svg>