<?xml version="1.0" standalone="no"?><!DOCTYPE svg PUBLIC "-//W3C//DTD SVG 1.1//EN" "http://www.w3.org/Graphics/SVG/1.1/DTD/svg11.dtd"><svg t="1614223191879" class="icon" viewBox="0 0 1024 1024" version="1.1" xmlns="http://www.w3.org/2000/svg" p-id="3772" xmlns:xlink="http://www.w3.org/1999/xlink" width="200" height="200"><defs><style type="text/css"></style></defs><path d="M907.392 114.56a32.768 32.768 0 0 0-15.872-2.24H768.256a32 32 0 0 0 0 64h47.616L639.744 352.448 408.896 121.536A33.472 33.472 0 0 0 383.808 112a33.024 33.024 0 0 0-24.704 9.472l-253.696 253.76a33.152 33.152 0 0 0 46.848 46.848l231.232-231.296 231.168 231.168c6.848 6.912 16 9.92 25.088 9.536a33.024 33.024 0 0 0 25.088-9.536l199.424-199.424v49.728a32 32 0 0 0 64 0v-128a31.808 31.808 0 0 0-20.864-29.696zM128.256 656.256a32 32 0 0 0-32 32v192a32 32 0 1 0 64 0v-192a32 32 0 0 0-32-32z m256-224a32 32 0 0 0-32 32v416a32 32 0 0 0 64 0v-416a32 32 0 0 0-32-32z m519.872 187.648h-1.92c-32.128 0-58.24-27.648-58.24-61.632 0-11.264 5.056-23.488 5.056-23.616a28.8 28.8 0 0 0-8.896-33.728l-0.576-0.384-56-33.024-0.576-0.256a28.48 28.48 0 0 0-31.744 6.72c-6.848 7.488-28.416 26.88-45.888 26.88-17.472 0-39.232-19.776-46.08-27.392a28.672 28.672 0 0 0-21.056-9.216 25.472 25.472 0 0 0-10.624 2.24l-0.64 0.256-57.92 33.792-0.576 0.384a28.864 28.864 0 0 0-8.96 33.728c0 0.128 5.056 12.352 5.056 23.616 0 33.984-26.112 61.632-58.24 61.632h-1.92c-9.344-0.128-17.024 8.512-19.456 22.144-0.192 1.024-4.672 26.496-4.672 46.528s4.48 45.376 4.672 46.528c2.432 13.376 9.856 22.016 19.072 22.016h2.304c32.128 0 58.24 27.648 58.24 61.76 0 11.136-5.056 23.488-5.056 23.488a28.864 28.864 0 0 0 8.896 33.728l0.512 0.384 54.976 32.64 0.576 0.256a28.352 28.352 0 0 0 31.808-7.104c6.464-7.36 28.864-28.48 46.848-28.48s40.128 20.992 47.104 29.12a27.84 27.84 0 0 0 31.744 7.232l0.64-0.256 56.896-33.344 0.64-0.384a28.992 28.992 0 0 0 8.896-33.728s-5.056-12.352-5.056-23.488c0-34.112 26.112-61.76 58.24-61.76h1.92c9.344 0.256 17.024-8.512 19.456-22.016 0.192-1.152 4.672-26.496 4.672-46.528s-4.48-45.504-4.672-46.528c-2.432-13.76-10.112-22.336-19.456-22.208zM861.312 721.6c-36.16 1.984-65.088 33.984-65.088 73.024 0 12.992 4.736 25.472 5.76 28.032L758.848 848h-0.128c-0.64 0-1.216-0.128-1.344-0.384a121.088 121.088 0 0 0-16.064-15.104c-13.44-10.624-26.176-16-38.016-16-11.712 0-24.384 5.376-37.76 15.744-8.96 6.976-15.168 14.016-15.936 14.848a3.392 3.392 0 0 1-1.344 0.384h-0.128l-41.664-24.768c1.088-2.624 5.824-15.104 5.824-28.096 0-38.976-28.864-70.976-65.088-73.024a225.152 225.152 0 0 1-3.392-33.28c0-12.864 2.816-30.016 3.328-33.152 36.224-1.984 65.152-33.984 65.152-73.024 0-12.992-4.736-25.344-5.76-28.032l44.032-25.728h0.128c0.768 0 1.408 0.256 1.6 0.512 0.768 0.768 6.912 7.488 15.872 14.272 13.12 9.984 25.6 15.104 37.056 15.104 11.328 0 23.68-4.992 36.8-14.848 8.896-6.656 14.976-13.248 15.744-14.016a3.84 3.84 0 0 1 1.6-0.384h0.128l42.496 25.152c-1.024 2.496-5.76 14.976-5.76 28.032 0 38.976 28.864 70.976 65.088 73.024 0.576 3.136 3.392 20.224 3.392 33.152 0 12.992-2.816 30.272-3.392 33.216z m-157.056-97.728a63.808 63.808 0 0 0-63.232 64.384c0 35.648 28.288 64.384 63.232 64.384s63.232-28.736 63.232-64.384a63.808 63.808 0 0 0-63.232-64.384z" p-id="3773" fill="#8a8a8a"></path></svg>