<?xml version="1.0" encoding="UTF-8"?>
<svg width="102px" height="32px" viewBox="0 0 102 32" version="1.1" xmlns="http://www.w3.org/2000/svg" xmlns:xlink="http://www.w3.org/1999/xlink">
    <title>logo</title>
    <defs>
        <path d="M2.63628862,2.63613745 C-0.878762874,6.15084819 -0.878762874,11.8482123 2.63628862,15.3645933 L2.63628862,15.3645933 C6.15091271,18.8784689 11.8491941,18.8784689 15.3646731,15.3645933 L15.3646731,15.3645933 C18.8784423,11.8482123 18.8784423,6.15084819 15.3646731,2.63613745 L15.3646731,2.63613745 C13.6071473,0.878573293 11.3033867,0.000417572858 9.00005343,0 L9.00005343,0 C6.69672019,0 4.3946692,0.878573293 2.63628862,2.63613745" id="path-1"></path>
        <linearGradient x1="15.7142286%" y1="15.9848224%" x2="85.7750816%" y2="83.4388917%" id="linearGradient-3">
            <stop stop-color="#5384FF" offset="0%"></stop>
            <stop stop-color="#4277FE" offset="100%"></stop>
        </linearGradient>
        <linearGradient x1="9.5%" y1="0%" x2="58.3167553%" y2="56.8947471%" id="linearGradient-4">
            <stop stop-color="#E0E9F1" offset="0%"></stop>
            <stop stop-color="#FFFFFF" stop-opacity="0" offset="99.9914636%"></stop>
        </linearGradient>
        <linearGradient x1="43.9728563%" y1="43.3122312%" x2="134.012594%" y2="129.326686%" id="linearGradient-5">
            <stop stop-color="#FFFFFF" stop-opacity="0" offset="0%"></stop>
            <stop stop-color="#516EA0" offset="100%"></stop>
        </linearGradient>
    </defs>
    <g id="页面-1" stroke="none" stroke-width="1" fill="none" fill-rule="evenodd">
        <g id="Qualitis系统-我的项目" transform="translate(-16.000000, -16.000000)">
            <g id="logo" transform="translate(16.000000, 16.000000)">
                <rect id="矩形" opacity="0" x="0" y="0" width="102" height="32"></rect>
                <g id="编组-18" transform="translate(1.000000, 5.000000)">
                    <path d="M16.9507944,8.92952907 C17.7949246,4.1795854 17.4253325,0 10.3574528,0 C3.28957313,0 1.17240323,4.1795854 0.337398723,8.92952907 C-0.534108713,13.8482988 -0.159953688,17.9731298 6.90792599,17.9731298 C10.0563036,17.9731298 12.2191022,17.1518139 13.724848,15.8103312 L16.4625677,17.9822555 L17.2063149,13.7844187 L15.8785208,12.7303966 C16.3817959,11.5091938 16.7416281,10.2337037 16.9507944,8.92952907 Z M7.45090706,14.8612551 C3.80061414,14.8612551 3.82799133,12.6619536 4.48960692,8.92952907 C5.0188994,6.00929473 6.15049021,3.08906039 9.80990886,3.08906039 C13.4693275,3.08906039 13.3096272,6.00929473 12.7940233,8.92952907 C12.7255803,9.33562416 12.6434487,9.72803064 12.5613172,10.0976228 L10.0380522,8.09452456 L10.0380522,8.09452456 L9.29430499,12.2877986 L10.9506254,13.6201555 C10.179501,14.4414714 9.07528741,14.8840694 7.45090706,14.8840694 L7.45090706,14.8612551 Z" id="形状" fill="#5384FF" fill-rule="nonzero"></path>
                    <path d="M23.6627705,17.9731298 L29.9047714,17.9731298 L32.1542644,5.07390717 L28.1389422,5.07390717 L26.4917475,14.7654349 L24.1373086,14.7654349 C23.8447186,14.7962116 23.5552372,14.6840403 23.3597786,14.4641493 C23.1643199,14.2442583 23.0868614,13.9436222 23.1517295,13.6566584 L24.6392239,5.0830329 L20.6193388,5.0830329 L19.2504789,12.9859171 C18.6253663,15.6597566 20.4459499,18.1510816 23.644519,17.9731298" id="路径" fill="#5384FF" fill-rule="nonzero"></path>
                    <path d="M40.2624776,15.3768589 L38.4829598,15.3768589 C37.3696204,15.3768589 36.872268,14.9935782 36.872268,14.2407053 C36.872268,13.4878324 37.6890211,13.1091145 38.9164321,12.817091 C39.6464907,12.6391393 40.4495551,12.4201217 40.7917701,12.3608044 C40.486058,14.1585737 40.2624776,15.3859847 40.2624776,15.3859847 M40.896716,5.11497296 C38.8362723,5.12909384 36.7921883,5.48210683 34.8463555,6.15986931 L34.2212428,9.66871338 C35.9342906,8.72673649 37.8362171,8.1795429 39.7879395,8.06714736 C40.8100215,8.06714736 41.2571824,8.52343398 41.102045,9.14398378 C40.9469075,9.76453357 40.0388971,10.1067485 38.3278223,10.2892632 C34.8509183,10.7820527 32.9755803,12.1144096 32.6242396,14.3958427 C32.4736651,16.4400068 34.5497692,17.9868184 36.2745326,17.9959441 C37.999296,18.0050699 39.8107538,17.9959441 39.8107538,17.9959441 L43.8032617,17.9959441 L44.1500396,15.9517801 L45.1264929,10.261886 C45.7287912,6.94011942 43.6070585,5.10584723 40.896716,5.10584723" id="形状" fill="#5384FF" fill-rule="nonzero"></path>
                    <path d="M74.0915673,14.2042023 C73.0394824,14.5229442 71.9566129,14.7294235 70.861058,14.8201893 C70.181191,14.8201893 69.7340301,14.6468004 69.9484848,13.4513294 L70.861058,8.18578188 L74.9950148,8.18578188 L75.5425587,5.07390717 L71.408602,5.07390717 L72.2709837,0.205328977 L68.2556615,0.205328977 L67.4024055,5.0830329 L64.6646858,5.0830329 L64.112579,8.21315908 L66.8502987,8.21315908 L65.7780251,14.3319626 C65.2669841,17.2430712 67.0373762,17.9822555 69.4009409,17.9822555 C70.7795237,17.8995168 72.1512734,17.727286 73.5075204,17.4666516 L74.0915673,14.2042023 Z" id="路径" fill="#5384FF" fill-rule="nonzero"></path>
                    <path d="M76.792784,10.1615029 L75.4239242,17.9822555 L79.3023604,17.9822555 L81.5837935,5.09215863 L77.7053573,5.09215863 L76.792784,10.1615029 Z M81.8849427,0.739184317 C81.5406146,0.353189851 81.0298568,0.159101877 80.5160828,0.219017575 C79.9326187,0.191456384 79.3579173,0.36903268 78.8917025,0.720932853 C78.4926194,1.11410084 78.2371307,1.62989883 78.1662067,2.18561289 C78.0186829,2.66040849 78.1013827,3.17685985 78.3897872,3.58184993 C78.719106,3.95351587 79.2044861,4.14800617 79.6993298,4.10657954 C80.2749534,4.13854537 80.8448436,3.97801292 81.3191473,3.65029292 C81.7345867,3.27595816 82.004459,2.76691747 82.0811459,2.21299009 C82.2403814,1.71718424 82.1683437,1.17606331 81.8849427,0.739184317 L81.8849427,0.739184317 Z" id="形状" fill="#5384FF" fill-rule="nonzero"></path>
                    <g id="编组" transform="translate(82.000000, 3.749774)">
                        <mask id="mask-2" fill="white">
                            <use xlink:href="#path-1"></use>
                        </mask>
                        <use id="Clip-2" fill="#5384FF" xlink:href="#path-1"></use>
                        <path d="M2.38734844,2.38747894 C-0.62178371,5.39735802 -0.811924726,10.0853224 1.96275753,12.860278 L1.96275753,12.860278 C4.73830015,15.6356537 9.42686789,15.4452774 12.4364302,12.4362389 L12.4364302,12.4362389 C15.4459926,9.42762056 15.634843,4.73839538 12.8605909,1.96259934 L12.8605909,1.96259934 C11.5468112,0.650137407 9.80284809,0 8.01199503,0 L8.01199503,0 C6.02110674,-0.000420091759 3.9721437,0.801850105 2.38734844,2.38747894" id="Fill-3" fill="url(#linearGradient-3)" mask="url(#mask-2)"></path>
                        <path d="M8.2101177,1.06108669 C9.25233182,1.09429577 10.2073984,1.4933346 10.917431,2.28151841 L10.9937521,2.36908144 C12.6720847,4.35750022 10.8552663,6.59519873 8.50191981,9.21012272 L8.40119193,9.32197823 C8.26716495,9.4706027 8.13424367,9.61711121 8.00240661,9.76089057 L7.80546149,9.97443609 C5.71332998,12.2287865 3.89600797,13.7059832 2.26550911,11.8943493 L2.18234839,11.7988544 C0.470988764,9.766681 0.963781088,6.06191564 3.31696692,3.44999593 C4.72536925,1.88330127 6.48727153,1.05882353 8.06747226,1.05882353 L8.2101177,1.06108669 Z" id="Clip-6" fill="url(#linearGradient-4)" mask="url(#mask-2)"></path>
                        <g mask="url(#mask-2)">
                            <g transform="translate(4.235294, 3.176471)">
                                <path d="M10.4706609,7.42505907 L10.557815,7.42787073 C10.8474166,7.4466963 11.1279288,7.56086715 11.400234,7.79473259 L11.4816802,7.86850741 L11.570604,7.95799902 C11.942614,8.35446698 12.1416206,8.86196127 12.1768886,9.41431587 L12.182125,9.54254854 L12.182125,9.64939217 L12.1765764,9.78484165 C12.1221117,10.64418 11.7002376,11.5728476 10.9430621,12.3458334 L10.813767,12.4731842 L10.6910644,12.5862409 C9.86643323,13.3216246 8.8731814,13.7284185 7.95806412,13.7738368 L7.81425721,13.7780002 L7.75885193,13.7780002 L7.62198104,13.7740435 C7.03238766,13.7446489 6.49031489,13.5557694 6.0675654,13.197557 L5.97215867,13.1118822 L5.88949165,13.0287181 C5.65457095,12.7784437 5.5365177,12.5210917 5.51222445,12.2556265 L5.50756759,12.1668361 L5.50756759,12.1342157 L5.5124574,12.0401138 C5.5861304,11.221624 6.46527132,10.3263837 7.51079892,9.33075232 C8.60365539,8.29209986 9.58061825,7.42505907 10.4706609,7.42505907 Z" id="Clip-8" fill="url(#linearGradient-5)" transform="translate(8.844846, 10.601530) rotate(4.000000) translate(-8.844846, -10.601530) "></path>
                                <path d="M8.22467048,5.29754197 C8.02847293,5.079538 7.77497876,4.89706059 7.46592422,4.74930234 C7.15643562,4.60073667 6.80050203,4.47639366 6.39899157,4.37425475 L5.17579538,4.04644137 C5.12804819,4.03271519 5.07986693,4.0185853 5.03211974,4.0040517 C4.21564279,3.74688775 4.01944525,3.38879603 3.9812475,3.30280557 C3.81283014,2.86114566 4.09844515,2.49861312 4.09844515,2.49861312 C4.48302706,1.88739456 5.87203622,1.79817441 6.56176608,1.81351543 L8.64571388,1.81351543 L8.97994421,0.00569725573 C8.65309299,0.00569725573 8.40133508,0.00933065537 8.01979163,0.00569725573 C7.45290226,0.00166014502 6.83392506,-0.00479923211 6.24403023,0.00569725573 C4.82724089,0.0279013646 3.6691545,0.184944971 2.72983706,0.736414294 C1.79225588,1.28909475 1.25227857,1.88093518 1.05043818,2.85670484 C0.882888946,3.66453069 0.993575613,4.26969359 1.38553664,4.67421208 C1.77706359,5.07792315 2.37520566,5.38393614 3.17822658,5.58902137 L4.30766465,5.91683476 C4.38319202,5.93742402 4.4674007,5.96124297 4.55247752,5.98667677 C4.83939472,6.0750895 5.30601498,6.23657393 5.56428387,6.42793297 C5.79260225,6.61404378 5.97273938,6.88695246 5.89287135,7.27612993 C5.84642636,7.49413391 5.73791002,7.67136307 5.5664542,7.80539515 C5.39543245,7.93983093 5.19446019,8.04883292 4.96657587,8.13118998 C4.73695529,8.21556559 4.49474682,8.27329628 4.23821419,8.30518945 C3.98298376,8.33708263 3.74858847,8.34313829 3.53719863,8.35282736 C3.31148465,8.36493869 3.1704134,8.3835094 2.82012266,8.37583889 L0.389790695,8.37583889 L0,10.4840181 L0.194895347,10.4840181 C0.194895347,10.4840181 3.68000614,10.5207558 4.5464006,10.391972 C4.67965867,10.3734013 4.80770795,10.3572528 4.9335869,10.331819 C4.94964732,10.3285893 4.96657587,10.3269745 4.98307035,10.3229374 L4.97829564,10.3213225 C5.0225703,10.3128446 5.06858123,10.303963 5.1128559,10.2930628 C5.78305282,10.119467 6.39899157,9.83323586 6.90771617,9.53125998 C6.99669957,9.47918125 7.07917199,9.42306541 7.16338067,9.36533473 C8.19081338,8.65399582 8.51028549,7.59102457 8.59188977,7.22606976 C8.67870285,6.78844696 8.68955448,6.41461051 8.62270841,6.10617525 C8.55325796,5.78401381 8.41999989,5.51514224 8.22467048,5.29754197" id="Fill-9" fill="#FEFEFE"></path>
                            </g>
                        </g>
                    </g>
                    <path d="M57.7930094,10.1615029 L56.4241495,17.9822555 L60.3025857,17.9822555 L62.5840188,5.09215863 L58.7055826,5.09215863 L57.7930094,10.1615029 Z M62.885168,0.739184317 C62.5408399,0.353189851 62.0300821,0.159101877 61.5163081,0.219017575 C60.9329424,0.192229377 60.3584974,0.369726424 59.8919278,0.720932853 C59.4928448,1.11410084 59.237356,1.62989883 59.1664321,2.18561289 C59.0217616,2.66060807 59.1042563,3.17577929 59.3900125,3.58184993 C59.7167559,3.94890783 60.1957902,4.14288299 60.6858665,4.10657954 C61.2614133,4.13784854 61.8310822,3.97737843 62.305684,3.65029292 C62.7178813,3.27405072 62.9857766,2.76569515 63.0631198,2.21299009 C63.2304181,1.72016027 63.1649598,1.17803111 62.885168,0.739184317 L62.885168,0.739184317 Z" id="形状" fill="#5384FF" fill-rule="nonzero"></path>
                    <path d="M51.5920743,14.6468004 C51.0308417,14.6011717 50.716004,14.318274 50.8985186,13.2779405 L53.2210175,0.23726904 L49.2787011,0.23726904 L46.7919391,14.3228369 C46.3356524,16.9282334 47.6634465,17.8134295 49.6528561,17.9731298 C50.0645269,18.0020734 50.4777221,18.0020734 50.8893929,17.9731298 L50.9167701,17.9731298 L51.0490932,17.9731298 C51.862294,17.8928743 52.6688605,17.7556513 53.4628494,17.5624718 L53.4628494,17.5624718 C53.7868129,17.489466 54.0742734,17.4118973 54.3252311,17.3343285 L54.9366551,13.8300473 C52.8833654,14.6513632 51.9297263,14.6969919 51.6194514,14.6787404" id="路径" fill="#5384FF" fill-rule="nonzero"></path>
                </g>
            </g>
        </g>
    </g>
</svg>