<?xml version="1.0" encoding="UTF-8"?>
<svg width="14px" height="14px" viewBox="0 0 14 14" version="1.1" xmlns="http://www.w3.org/2000/svg" xmlns:xlink="http://www.w3.org/1999/xlink">
    <title>告警</title>
    <g id="页面-2" stroke="none" stroke-width="1" fill="none" fill-rule="evenodd">
        <g id="Qualitis系统-我的项目-详情" transform="translate(-276.000000, -463.000000)" fill="#93949B" fill-rule="nonzero">
            <g id="按钮2备份-7" transform="translate(260.000000, 454.000000)">
                <g id="告警" transform="translate(16.000000, 9.000000)">
                    <rect id="矩形" opacity="0" x="0" y="0" width="14" height="14"></rect>
                    <path d="M7,2.40625 C7.24162458,2.40625 7.4375,2.21037458 7.4375,1.96875 L7.4375,1.09375 C7.4375,0.852125422 7.24162458,0.65625 7,0.65625 C6.75837542,0.65625 6.5625,0.852125422 6.5625,1.09375 L6.5625,1.96875 C6.5625,2.21037458 6.75837542,2.40625 7,2.40625 Z M1.8029375,3.95325 C1.97460326,4.11905034 2.24747459,4.11667916 2.41623313,3.94792063 C2.58499166,3.77916209 2.58736284,3.50629076 2.4215625,3.334625 L1.8029375,2.7155625 C1.63127174,2.54976216 1.35840041,2.55213334 1.18964187,2.72089187 C1.02088334,2.88965041 1.01851216,3.16252174 1.1843125,3.3341875 L1.8029375,3.95325 Z M12.922,3.1530625 C12.7511563,2.9822704 12.4742187,2.9822704 12.303375,3.1530625 L11.68475,3.7716875 C11.5189497,3.94335326 11.5213208,4.21622459 11.6900794,4.38498313 C11.8588379,4.55374166 12.1317092,4.55611284 12.303375,4.3903125 L12.922,3.7716875 C13.0927921,3.60084381 13.0927921,3.32390619 12.922,3.1530625 L12.922,3.1530625 Z M12.46875,12.46875 L11.8125,12.46875 L11.8125,7.65625 C11.8125,4.9984375 9.6578125,2.84375 7,2.84375 C4.3421875,2.84375 2.1875,4.9984375 2.1875,7.65625 L2.1875,12.46875 L1.53125,12.46875 C1.28962542,12.46875 1.09375,12.6646254 1.09375,12.90625 C1.09375,13.1478746 1.28962542,13.34375 1.53125,13.34375 L12.46875,13.34375 C12.7103746,13.34375 12.90625,13.1478746 12.90625,12.90625 C12.90625,12.6646254 12.7103746,12.46875 12.46875,12.46875 Z M7.4375,12.46875 L7.4375,10.71875 C7.4375,10.4771254 7.24162458,10.28125 7,10.28125 C6.75837542,10.28125 6.5625,10.4771254 6.5625,10.71875 L6.5625,12.46875 L3.0625,12.46875 L3.0625,7.65625 C3.0625,5.4814375 4.8251875,3.71875 7,3.71875 C9.1748125,3.71875 10.9375,5.4814375 10.9375,7.65625 L10.9375,12.46875 L7.4375,12.46875 Z M7,6.34375 C6.03350169,6.34375 5.25,7.12725169 5.25,8.09375 C5.25,9.06024831 6.03350169,9.84375 7,9.84375 C7.96649831,9.84375 8.75,9.06024831 8.75,8.09375 C8.75,7.12725169 7.96649831,6.34375 7,6.34375 Z M7,8.96875003 C6.68731445,8.96867185 6.39842279,8.80178389 6.24214769,8.53095119 C6.0858726,8.26011848 6.08595599,7.92648698 6.24236644,7.65573243 C6.3987769,7.38497788 6.68775195,7.21823434 7.0004375,7.21831247 C7.48380746,7.21843332 7.8755583,7.61038004 7.87543751,8.09375 C7.87531667,8.57711996 7.48336996,8.96887081 7,8.96875003 L7,8.96875003 Z" id="形状"></path>
                </g>
            </g>
        </g>
    </g>
</svg>