<?xml version="1.0" encoding="UTF-8"?>
<svg width="14px" height="14px" viewBox="0 0 14 14" version="1.1" xmlns="http://www.w3.org/2000/svg" xmlns:xlink="http://www.w3.org/1999/xlink">
    <title>集群配置</title>
    <g id="DSS-内嵌创建规则复制功能" stroke="none" stroke-width="1" fill="none" fill-rule="evenodd">
        <g id="画板" transform="translate(-253.000000, -395.000000)" fill="#000000" fill-rule="nonzero">
            <g id="集群配置" transform="translate(253.000000, 395.000000)">
                <path d="M9.83711206,2.44532592 L7,0.807318514 L4.16288794,2.44532592 L4.16288794,5.72134074 L7,7.35934815 L9.83711206,5.72134074 L9.83711206,2.44532592 Z M7,1.81766667 L8.96175,2.94991667 L8.96175,5.21616667 L7,6.34841667 L5.03766667,5.21558333 L5.03766667,2.9505 L7,1.81766667 Z" id="多边形备份-3"></path>
                <path d="M6.62877872,8.13282592 L3.79166667,6.49481851 L0.95455461,8.13282592 L0.95455461,11.4088407 L3.79166667,13.0468482 L6.62877872,11.4088407 L6.62877872,8.13282592 Z M3.79166667,7.50516667 L5.75341667,8.63741667 L5.75341667,10.9036667 L3.79166667,12.0359167 L1.82933333,10.9030833 L1.82933333,8.638 L3.79166667,7.50516667 Z" id="多边形备份-4"></path>
                <path d="M13.0454454,8.13282592 L10.2083333,6.49481851 L7.37122128,8.13282592 L7.37122128,11.4088407 L10.2083333,13.0468482 L13.0454454,11.4088407 L13.0454454,8.13282592 Z M10.2083333,7.50516667 L12.1700833,8.63741667 L12.1700833,10.9036667 L10.2083333,12.0359167 L8.246,10.9030833 L8.246,8.638 L10.2083333,7.50516667 Z" id="多边形备份-5"></path>
            </g>
        </g>
    </g>
</svg>