<?xml version="1.0" encoding="UTF-8"?>
<svg width="12px" height="12px" viewBox="0 0 12 12" version="1.1" xmlns="http://www.w3.org/2000/svg" xmlns:xlink="http://www.w3.org/1999/xlink">
    <title>编组 10</title>
    <g id="系统设置1208" stroke="none" stroke-width="1" fill="none" fill-rule="evenodd">
        <g id="编组-10" transform="translate(0.312500, 0.312500)" fill="#000000" fill-rule="nonzero">
            <path d="M10.9375,0 C11.1522774,0 11.3309073,0.154765765 11.3679513,0.358858822 L11.375,0.4375 L11.375,8.60416667 C11.375,8.81894407 11.2202342,8.99757399 11.0161412,9.03461796 L10.9375,9.04166667 L10.0041667,9.04166667 C9.76254209,9.04166667 9.56666667,8.84579124 9.56666667,8.60416667 C9.56666667,8.38938926 9.72143243,8.21075934 9.92552549,8.17371538 L10.0041667,8.16666667 L10.5005,8.1675 L10.5005,0.8755 L3.2085,0.8755 L3.20833333,1.3125 C3.20833333,1.5272774 3.05356757,1.70590732 2.84947451,1.74295129 L2.77083333,1.75 C2.55605593,1.75 2.37742601,1.59523423 2.34038204,1.39114118 L2.33333333,1.3125 L2.33333333,0.4375 C2.33333333,0.222722597 2.4880991,0.0440926759 2.69219216,0.00704871074 L2.77083333,0 L10.9375,0 Z" id="路径"></path>
            <path d="M8.60416667,2.33333333 L0.4375,2.33333333 C0.195875422,2.33333333 0,2.52920876 0,2.77083333 L0,10.9375 C0,11.1791246 0.195875422,11.375 0.4375,11.375 L8.60416667,11.375 C8.84579124,11.375 9.04166667,11.1791246 9.04166667,10.9375 L9.04166667,2.77083333 C9.04166667,2.52920876 8.84579124,2.33333333 8.60416667,2.33333333 Z M8.1675,3.2085 L8.1675,10.5005 L0.8755,10.5005 L0.8755,3.2085 L8.1675,3.2085 Z" id="矩形备份"></path>
        </g>
    </g>
</svg>