<?xml version="1.0" encoding="UTF-8"?>
<svg width="14px" height="14px" viewBox="0 0 14 14" version="1.1" xmlns="http://www.w3.org/2000/svg" xmlns:xlink="http://www.w3.org/1999/xlink">
    <title>02 icon/占位</title>
    <g id="系统设置1208" stroke="none" stroke-width="1" fill="none" fill-rule="evenodd">
        <g id="02-icon/占位">
            <path d="M12.5416667,1.3125 C12.7027497,1.3125 12.8333333,1.44308361 12.8333333,1.60416667 L12.8333333,6.27083333 C12.8333333,6.43191639 12.7027497,6.5625 12.5416667,6.5625 L1.45833333,6.5625 C1.29725028,6.5625 1.16666667,6.43191639 1.16666667,6.27083333 L1.16666667,1.60416667 C1.16666667,1.44308361 1.29725028,1.3125 1.45833333,1.3125 L12.5416667,1.3125 Z M11.9583333,2.1875 L2.04166667,2.1875 L2.04166667,5.6875 L11.9583333,5.6875 L11.9583333,2.1875 Z" id="矩形" fill="#93949B" fill-rule="nonzero"></path>
            <path d="M12.5416667,7.4375 C12.7027497,7.4375 12.8333333,7.56808361 12.8333333,7.72916667 L12.8333333,12.3958333 C12.8333333,12.5569164 12.7027497,12.6875 12.5416667,12.6875 L1.45833333,12.6875 C1.29725028,12.6875 1.16666667,12.5569164 1.16666667,12.3958333 L1.16666667,7.72916667 C1.16666667,7.56808361 1.29725028,7.4375 1.45833333,7.4375 L12.5416667,7.4375 Z M11.9583333,8.3125 L2.04166667,8.3125 L2.04166667,11.8125 L11.9583333,11.8125 L11.9583333,8.3125 Z" id="矩形备份" fill="#93949B" fill-rule="nonzero"></path>
            <rect id="矩形" fill="#93949B" x="9.91666667" y="3.0625" width="1.16666667" height="1.16666667"></rect>
            <rect id="矩形备份-3" fill="#93949B" x="9.91666667" y="9.77083333" width="1.16666667" height="1.16666667"></rect>
        </g>
    </g>
</svg>