<?xml version="1.0" encoding="UTF-8"?>
<svg width="12px" height="12px" viewBox="0 0 12 12" version="1.1" xmlns="http://www.w3.org/2000/svg" xmlns:xlink="http://www.w3.org/1999/xlink">
    <title>02 icon/占位 5</title>
    <g id="工作概览-0916" stroke="none" stroke-width="1" fill="none" fill-rule="evenodd">
        <g id="01-导航/一级标题/默认备份-3" transform="translate(-18.000000, -21.000000)" fill="#93949B" fill-rule="nonzero">
            <g id="02-icon/占位" transform="translate(17.000000, 20.000000)">
                <path d="M12.4181662,9.04077933 L12.5195159,9.22279857 C12.6090742,9.3836409 12.551287,9.5866307 12.3904447,9.67618896 L7.11306315,12.6146764 C7.01146981,12.6712443 6.88774067,12.6707821 6.78657277,12.6134568 L1.60388528,9.67675946 C1.44371651,9.58600206 1.38744747,9.38258622 1.47820486,9.22241745 L1.58091161,9.04116045 C1.67166915,8.88099186 1.87508486,8.82472279 2.03525372,8.91547984 L6.9526392,11.7018432 L11.9647603,8.91168037 C12.1256158,8.82217121 12.3285862,8.87996328 12.4181662,9.04077933 Z M12.4181662,6.56594177 L12.5195159,6.74796102 C12.6090742,6.90880335 12.551287,7.11179314 12.3904447,7.20135141 L7.11306315,10.1398388 C7.01146981,10.1964068 6.88774067,10.1959446 6.78657277,10.1386192 L1.60388528,7.2019219 C1.44371651,7.11116451 1.38744747,6.90774867 1.47820486,6.7475799 L1.58091161,6.56632289 C1.67166915,6.40615431 1.87508486,6.34988523 2.03525372,6.44064228 L6.9526392,9.22700563 L11.9647603,6.43684282 C12.1256158,6.34733365 12.3285862,6.40512573 12.4181662,6.56594177 Z M7.19722609,1.30946892 L12.5435241,4.34121588 C12.6836454,4.42067505 12.7328218,4.59868023 12.6533626,4.73880157 C12.6269706,4.78534229 12.5882854,4.82372684 12.5415401,4.84975495 L7.08832526,7.88614771 C6.99943109,7.93564468 6.89116809,7.93524027 6.80264618,7.88508057 L1.45221183,4.85333184 C1.31206416,4.77391912 1.26282875,4.59593026 1.34224147,4.45578259 C1.36865001,4.40917675 1.40738358,4.37074387 1.45419381,4.34469934 L6.91154506,1.30830836 C7.00045601,1.25883959 7.10871999,1.25927941 7.19722609,1.30946892 Z M7.05051062,2.23198311 L2.78712814,4.6037371 L6.9490408,6.96229177 L11.208711,4.5901253 L7.05051062,2.23198311 Z" id="形状结合"></path>
            </g>
        </g>
    </g>
</svg>