<?xml version="1.0" encoding="UTF-8"?>
<svg width="13px" height="14px" viewBox="0 0 13 14" version="1.1" xmlns="http://www.w3.org/2000/svg" xmlns:xlink="http://www.w3.org/1999/xlink">
    <title>形状结合</title>
    <g id="我的项目-1101" stroke="none" stroke-width="1" fill="none" fill-rule="evenodd">
        <path d="M10.6666667,0.666666667 C10.9121266,0.666666667 11.116275,0.843541827 11.158611,1.07679103 L11.1666667,1.16666667 L11.1666667,4.77176336 C11.1666667,5.04790574 10.942809,5.27176336 10.6666667,5.27176336 C10.4212068,5.27176336 10.2170583,5.0948882 10.1747223,4.861639 L10.1666667,4.77176336 L10.166,1.666 L1.833,1.666 L1.833,12.333 L10.6666667,12.3333333 C10.9121266,12.3333333 11.116275,12.5102085 11.158611,12.7434577 L11.1666667,12.8333333 C11.1666667,13.0787932 10.9897915,13.2829417 10.7565423,13.3252777 L10.6666667,13.3333333 L1.33333333,13.3333333 C1.08787344,13.3333333 0.883724963,13.1564582 0.841389003,12.923209 L0.833333333,12.8333333 L0.833333333,1.16666667 C0.833333333,0.921206778 1.01020849,0.717058296 1.2434577,0.674722336 L1.33333333,0.666666667 L10.6666667,0.666666667 Z M12.5964318,6.42027352 C12.7886106,6.5729755 12.8384102,6.83845888 12.7264507,7.04741489 L12.6768457,7.12279299 L9.89580439,10.622793 C9.71825289,10.8462454 9.39625831,10.8720504 9.18573929,10.6972979 L9.12004607,10.631615 L7.36570832,8.5239862 C7.18904633,8.31174776 7.21788674,7.99648168 7.43012517,7.81981969 C7.61878156,7.66278681 7.88884251,7.66812619 8.07060232,7.82031324 L8.13429168,7.88423654 L9.495,9.518 L11.8939124,6.50068733 C12.0657021,6.28448627 12.3802308,6.24848378 12.5964318,6.42027352 Z M5.66666667,5.83333333 C5.85076158,5.83333333 6,5.98257175 6,6.16666667 L6,6.16666667 L6,6.5 C6,6.68409492 5.85076158,6.83333333 5.66666667,6.83333333 L5.66666667,6.83333333 L3.41666667,6.83333333 C3.23257175,6.83333333 3.08333333,6.68409492 3.08333333,6.5 L3.08333333,6.5 L3.08333333,6.16666667 C3.08333333,5.98257175 3.23257175,5.83333333 3.41666667,5.83333333 L3.41666667,5.83333333 Z M8,3.5 C8.18409492,3.5 8.33333333,3.64923842 8.33333333,3.83333333 L8.33333333,3.83333333 L8.33333333,4.16666667 C8.33333333,4.35076158 8.18409492,4.5 8,4.5 L8,4.5 L3.41666667,4.5 C3.23257175,4.5 3.08333333,4.35076158 3.08333333,4.16666667 L3.08333333,4.16666667 L3.08333333,3.83333333 C3.08333333,3.64923842 3.23257175,3.5 3.41666667,3.5 L3.41666667,3.5 Z" id="形状结合" fill="#000000" fill-rule="nonzero"></path>
    </g>
</svg>