<?xml version="1.0" encoding="UTF-8"?>
<svg width="14px" height="14px" viewBox="0 0 24 24" version="1.1" xmlns="http://www.w3.org/2000/svg" xmlns:xlink="http://www.w3.org/1999/xlink">
    <title>ICON/通用/line/函数管理</title>
    <g id="ICON/通用/line/函数管理" stroke="none" stroke-width="1" fill="none" fill-rule="evenodd">
        <rect id="矩形备份" x="0" y="0"></rect>
        <path d="M21,3.25 L21,3.75 C21,4.02614237 20.7761424,4.25 20.5,4.25 L4.213,4.25 L4.213,4.25 L7.67082039,11.1645898 C7.75434158,11.3316322 7.77196517,11.522506 7.72284603,11.7000062 L7.68535866,11.8046038 L4.153,19.75 L20.5,19.75 C20.7761424,19.75 21,19.9738576 21,20.25 L21,20.75 C21,21.0261424 20.7761424,21.25 20.5,21.25 L3,21.25 L3,21.25 C2.49117769,21.25 2.14029466,20.7590093 2.28004987,20.2889724 L2.31464134,20.1953962 L6.17,11.518 L2.32917961,3.8354102 C2.09542532,3.36790162 2.39952623,2.82299782 2.89784788,2.75671105 L3,2.75 L20.5,2.75 C20.7761424,2.75 21,2.97385763 21,3.25 Z" id="路径-6" fill="#000000" fill-rule="nonzero"></path>
        <rect id="矩形" fill="#000000" x="13" y="15.5" width="8" height="1.5" rx="0.5"></rect>
        <rect id="矩形备份-2" fill="#000000" x="13" y="11" width="8" height="1.5" rx="0.5"></rect>
    </g>
</svg>