<?xml version="1.0" encoding="UTF-8"?>
<svg width="14px" height="14px" viewBox="0 0 14 14" version="1.1" xmlns="http://www.w3.org/2000/svg" xmlns:xlink="http://www.w3.org/1999/xlink">
    <title>编组</title>
    <defs>
        <linearGradient x1="39.1006013%" y1="50%" x2="100%" y2="50%" id="linearGradient-1">
            <stop stop-color="#0F1222" offset="0%"></stop>
            <stop stop-color="#0F1222" stop-opacity="0" offset="100%"></stop>
        </linearGradient>
        <linearGradient x1="100%" y1="50%" x2="0%" y2="50%" id="linearGradient-2">
            <stop stop-color="#0F1222" offset="0%"></stop>
            <stop stop-color="#0F1222" stop-opacity="0" offset="100%"></stop>
        </linearGradient>
    </defs>
    <g id="1010" stroke="none" stroke-width="1" fill="none" fill-rule="evenodd">
        <g id="编组">
            <rect id="矩形" fill="#FFFFFF" opacity="0" x="0" y="0" width="14" height="14"></rect>
            <g id="Logo/Logo_White&amp;Yellow" transform="translate(0.000000, 3.336667)" fill-rule="nonzero">
                <g id="Logo/IMS-Logo">
                    <polygon id="Fill-4" fill="url(#linearGradient-1)" points="14 1.70451421 3.02587377 1.41896726 3.00986654 1.11705676 14 0.0138154243"></polygon>
                    <polygon id="Fill-7" fill="url(#linearGradient-2)" points="0 0.568475453 0 1.4496124 1.6628025 1.44023574 1.67855558 1.14066176"></polygon>
                    <path d="M2.3197319,1.42044064 L2.4197319,1.42044064 L2.4197319,1.11376309 L2.3197319,1.11376309 L2.3197319,1.42044064 Z M2.87729414,0.653746771 L2.93747227,1.81912145 L1.79045929,1.81912145 L1.85063743,0.653746771 L2.87729414,0.653746771 Z M2.39194171,0 C2.67779951,0 2.90949634,0.216346768 2.90949634,0.483204136 L1.87438707,0.483204136 C1.87438707,0.216346768 2.10608391,0 2.39194171,0 Z M1.77318025,1.93281654 L2.9547513,1.93281654 L3.24520747,7.33333333 L1.4827241,7.33333333 L1.77318025,1.93281654 Z M8.12507174,1.93281654 L9.23205571,1.93281654 L9.23205571,7.33333333 L8.19285477,7.33333333 L8.19285477,3.75834124 L6.81476844,6.420556 L6.24995948,6.420556 L4.87190287,3.75834124 L4.87190287,7.33333333 L3.83270193,7.33333333 L3.83270193,1.93281654 L4.94720082,1.93281654 L6.52860648,5.00580059 L8.12507174,1.93281654 Z M13.2973105,3.35951305 C13.2628333,3.32473973 13.2000747,3.2773652 13.109094,3.21759949 C13.0179947,3.15783376 12.9072704,3.09935817 12.7769804,3.04205269 C12.6465421,2.98486721 12.5050462,2.93632257 12.3525816,2.89638875 C12.2000281,2.85660494 12.0450141,2.83665303 11.8876285,2.83665303 C11.6071565,2.83665303 11.3979809,2.88894803 11.2602796,2.99350803 C11.1224597,3.09806805 11.0536239,3.24502212 11.0536239,3.4342202 C11.0536239,3.54379071 11.0794447,3.6347294 11.1311161,3.7068263 C11.1827874,3.77907323 11.2577302,3.8425593 11.3562111,3.89731452 C11.454603,3.95215977 11.5788158,4.00190452 11.7289384,4.04669883 C11.8789721,4.09152312 12.0524254,4.13889765 12.2492686,4.18864241 C12.5050462,4.25842907 12.7375524,4.33313622 12.946728,4.41270385 C13.1558147,4.49242146 13.3329439,4.592001 13.4781158,4.71150243 C13.6231987,4.83103388 13.7351681,4.97423759 13.8139351,5.14099355 C13.8925834,5.3078995 13.9320114,5.51332916 13.9320114,5.75725253 C13.9320114,6.04107967 13.8790949,6.2838629 13.773351,6.4855422 C13.6674588,6.68719151 13.5261111,6.85037712 13.3489819,6.97476901 C13.171823,7.09931095 12.9651672,7.19021965 12.728985,7.2474051 C12.4928324,7.30462058 12.2467488,7.33333333 11.9909415,7.33333333 C11.5972254,7.33333333 11.2086083,7.27356762 10.8248233,7.15403618 C10.4410383,7.03456474 10.0965627,6.86531853 9.79157424,6.64614756 L10.2417642,5.75725253 C10.2860539,5.8020468 10.3659474,5.86064241 10.4816224,5.93279933 C10.5971789,6.00501623 10.733724,6.07726315 10.8912579,6.14942004 C11.0486732,6.22163694 11.2233715,6.2826928 11.415264,6.33240756 C11.6071565,6.38224232 11.8039108,6.40708469 12.0057344,6.40708469 C12.566619,6.40708469 12.847091,6.22538732 12.847091,5.86181251 C12.847091,5.74228109 12.815015,5.64276156 12.7511299,5.56304392 C12.6871558,5.4834463 12.5961455,5.41365964 12.4780692,5.3538939 C12.3599633,5.29412819 12.2172223,5.23940297 12.0499945,5.18953819 C11.8826481,5.13985344 11.6957063,5.08755843 11.4890802,5.03268318 C11.2381348,4.96301652 11.0203918,4.88704923 10.8358809,4.80487139 C10.65137,4.72269352 10.4975418,4.62689435 10.3746037,4.51729385 C10.2515471,4.40781338 10.1592916,4.27826098 10.0978374,4.1288767 C10.0362646,3.9794624 10.005582,3.80277549 10.005582,3.59854593 C10.005582,3.32966022 10.0547038,3.09062735 10.1532144,2.88144732 C10.2515471,2.6723273 10.3881218,2.49807063 10.5628202,2.35858728 C10.7374296,2.21922394 10.9403797,2.11337381 11.1717002,2.0411269 C11.4029317,1.969 11.6514462,1.93281654 11.9171549,1.93281654 C12.2861767,1.93281654 12.625672,1.99141215 12.9356407,2.10836334 C13.2456392,2.22543454 13.51618,2.36362776 13.7475005,2.52291301 L13.2973105,3.35951305 Z" id="Fill-11" fill="#0F1222"></path>
                </g>
            </g>
        </g>
    </g>
</svg>