<?xml version="1.0" encoding="UTF-8"?>
<svg width="13px" height="12px" viewBox="0 0 13 12" version="1.1" xmlns="http://www.w3.org/2000/svg" xmlns:xlink="http://www.w3.org/1999/xlink">
    <title>形状结合</title>
    <g id="系统设置1208" stroke="none" stroke-width="1" fill="none" fill-rule="evenodd">
        <path d="M5.10416667,6.38084998 C5.26047036,6.38084998 5.40490093,6.46423701 5.48305278,6.59959998 L5.48305278,6.59959998 L6.79555278,8.87291667 C6.87370463,9.00827964 6.87370463,9.1750537 6.79555278,9.31041667 L6.79555278,9.31041667 L5.48305278,11.5837334 C5.40490093,11.7190963 5.26047036,11.8024834 5.10416667,11.8024834 L5.10416667,11.8024834 L2.47916667,11.8024834 C2.32286297,11.8024834 2.1784324,11.7190963 2.10028055,11.5837334 L2.10028055,11.5837334 L0.787780553,9.31041667 C0.709628705,9.1750537 0.709628705,9.00827964 0.787780553,8.87291667 L0.787780553,8.87291667 L2.10028055,6.59959998 C2.1784324,6.46423701 2.32286297,6.38084998 2.47916667,6.38084998 L2.47916667,6.38084998 Z M12.3951028,6.43948152 C12.5561858,6.43948152 12.6867694,6.57006514 12.6867694,6.73114819 L12.6867694,11.395303 C12.6867694,11.556386 12.5561858,11.6869696 12.3951028,11.6869696 L7.730948,11.6869696 C7.56986495,11.6869696 7.43928134,11.556386 7.43928134,11.395303 L7.43928134,6.73114819 C7.43928134,6.57006514 7.56986495,6.43948152 7.730948,6.43948152 L12.3951028,6.43948152 Z M4.85216667,7.25533333 L2.73175,7.25533333 L1.67183333,9.09108333 L2.73233333,10.9274167 L4.85158333,10.9274167 L5.91208333,9.09108333 L4.85216667,7.25533333 Z M11.8113333,7.31425 L8.31425,7.31425 L8.31425,10.8119167 L11.8113333,10.8119167 L11.8113333,7.31425 Z M10.0333333,0.3125 C11.5314057,0.3125 12.7458333,1.52692762 12.7458333,3.025 C12.7458333,4.52307238 11.5314057,5.7375 10.0333333,5.7375 C8.53526095,5.7375 7.32083333,4.52307238 7.32083333,3.025 C7.32083333,1.52692762 8.53526095,0.3125 10.0333333,0.3125 Z M6.26814217,0.312565873 C6.42922522,0.312565873 6.55980884,0.443149488 6.55980884,0.60423254 L6.55980884,5.26838731 C6.55980884,5.42947036 6.42922522,5.56005398 6.26814217,5.56005398 L1.6039874,5.56005398 C1.44290434,5.56005398 1.31232073,5.42947036 1.31232073,5.26838731 L1.31232073,0.60423254 C1.31232073,0.443149488 1.44290434,0.312565873 1.6039874,0.312565873 L6.26814217,0.312565873 Z M10.0333333,1.1875 C9.01851011,1.1875 8.19583333,2.01017677 8.19583333,3.025 C8.19583333,4.03982323 9.01851011,4.8625 10.0333333,4.8625 C11.0481566,4.8625 11.8708333,4.03982323 11.8708333,3.025 C11.8708333,2.01017677 11.0481566,1.1875 10.0333333,1.1875 Z M5.68458333,1.1875 L2.18691667,1.1875 L2.18691667,4.68458333 L5.68458333,4.68458333 L5.68458333,1.1875 Z" id="形状结合" fill="#000000" fill-rule="nonzero"></path>
    </g>
</svg>