<?xml version="1.0" encoding="UTF-8"?>
<svg width="12px" height="12px" viewBox="0 0 12 12" version="1.1" xmlns="http://www.w3.org/2000/svg" xmlns:xlink="http://www.w3.org/1999/xlink">
    <title>02 icon/占位</title>
    <g id="系统设置1208" stroke="none" stroke-width="1" fill="none" fill-rule="evenodd">
        <g id="02-icon/占位" transform="translate(0.318718, 0.306960)" fill="#000000" fill-rule="nonzero">
            <g id="编组">
                <path d="M11.0341064,10.4966889 C11.2182013,10.4966889 11.3674397,10.6459273 11.3674397,10.8300223 L11.3674397,11.0383556 C11.3674397,11.2224505 11.2182013,11.3716889 11.0341064,11.3716889 L6.44786345,11.3716889 C6.26376854,11.3716889 6.11453012,11.2224505 6.11453012,11.0383556 L6.11453012,10.8300223 C6.11453012,10.6459273 6.26376854,10.4966889 6.44786345,10.4966889 L11.0341064,10.4966889 Z M5.68128219,0 C7.45319576,0 8.88961553,1.43641976 8.88961553,3.20833333 C8.88961553,4.91914644 7.55055121,6.31720431 5.86334169,6.41158784 L5.68728648,6.41659516 L5.54640197,6.41848748 C3.04398647,6.4872609 1.02638883,8.46440233 0.879169746,10.9328599 C0.878327489,10.9469822 0.877395774,10.9840401 0.876374602,11.0440334 C0.873274321,11.2258876 0.724970148,11.3716889 0.543089546,11.3716889 L0.333389658,11.3716889 C0.149263634,11.3717452 8.58427912e-14,11.2224816 8.58202398e-14,11.0383556 L6.17217152e-05,11.0319407 C0.000874283791,10.9897187 0.00185191465,10.9573471 0.00299461428,10.9348257 C0.123117019,8.56734216 1.69319917,6.57646566 3.85208389,5.84315811 C3.01873413,5.26531158 2.47294886,4.30055995 2.47294886,3.20833333 C2.47294886,1.43641976 3.90936862,0 5.68128219,0 Z M11.0341064,8.67819755 C11.2182013,8.67819755 11.3674397,8.82743596 11.3674397,9.01153088 L11.3674397,9.21986421 C11.3674397,9.40395913 11.2182013,9.55319755 11.0341064,9.55319755 L6.44786345,9.55319755 C6.26376854,9.55319755 6.11453012,9.40395913 6.11453012,9.21986421 L6.11453012,9.01153088 C6.11453012,8.82743596 6.26376854,8.67819755 6.44786345,8.67819755 L11.0341064,8.67819755 Z M11.0341064,6.85970617 C11.2182013,6.85970617 11.3674397,7.00894459 11.3674397,7.19303951 L11.3674397,7.40137284 C11.3674397,7.58546776 11.2182013,7.73470617 11.0341064,7.73470617 L8.19473129,7.73470617 C8.01063637,7.73470617 7.86139795,7.58546776 7.86139795,7.40137284 L7.86139795,7.19303951 C7.86139795,7.00894459 8.01063637,6.85970617 8.19473129,6.85970617 L11.0341064,6.85970617 Z M5.68128219,0.875 C4.39261778,0.875 3.34794886,1.91966892 3.34794886,3.20833333 C3.34794886,4.49699775 4.39261778,5.54166667 5.68128219,5.54166667 C6.96994661,5.54166667 8.01461553,4.49699775 8.01461553,3.20833333 C8.01461553,1.91966892 6.96994661,0.875 5.68128219,0.875 Z" id="形状结合"></path>
            </g>
        </g>
    </g>
</svg>