<?xml version="1.0" encoding="UTF-8"?>
<svg width="14px" height="14px" viewBox="0 0 14 14" version="1.1" xmlns="http://www.w3.org/2000/svg" xmlns:xlink="http://www.w3.org/1999/xlink">
    <title>指标模板icon</title>
    <g id="指标模板icon" stroke="none" stroke-width="1" fill="none" fill-rule="evenodd">
        <g id="02-icon/占位备份-2" transform="translate(-0.291667, 0.000000)" fill="#93949B" fill-rule="nonzero">
            <path d="M12.6458333,1.3125 C12.8299282,1.3125 12.9791667,1.46173842 12.9791667,1.64583333 L12.9791667,11.7708333 C12.9791667,11.9549282 12.8299282,12.1041667 12.6458333,12.1041667 L11.3743333,12.1035 L11.375,12.5 C11.375,12.6840949 11.2257616,12.8333333 11.0416667,12.8333333 L1.79166667,12.8333333 C1.60757175,12.8333333 1.45833333,12.6840949 1.45833333,12.5 L1.45833333,3.25 C1.45833333,3.06590508 1.60757175,2.91666667 1.79166667,2.91666667 L2.18733333,2.9165 L2.1875,1.64583333 C2.1875,1.46173842 2.33673842,1.3125 2.52083333,1.3125 L12.6458333,1.3125 Z M10.5,3.79166667 L2.33333333,3.79166667 L2.33333333,11.9583333 L10.1666667,11.9583333 C10.3507616,11.9583333 10.5,11.8090949 10.5,11.625 L10.5,3.79166667 Z M12.1041667,2.1875 L3.0625,2.1875 L3.06233333,2.9165 L11.0416667,2.91666667 C11.2257616,2.91666667 11.375,3.06590508 11.375,3.25 L11.3743333,11.2285 L12.1041667,11.2291667 L12.1041667,2.1875 Z M9.29166667,10.0784162 C9.47576158,10.0784162 9.625,10.2276546 9.625,10.4117495 L9.625,10.7450828 C9.625,10.9291777 9.47576158,11.0784162 9.29166667,11.0784162 L4.70833333,11.0784162 C4.52423842,11.0784162 4.375,10.9291777 4.375,10.7450828 L4.375,10.4117495 C4.375,10.2276546 4.52423842,10.0784162 4.70833333,10.0784162 L9.29166667,10.0784162 Z M3.875,10.0784162 C4.05909492,10.0784162 4.20833333,10.2276546 4.20833333,10.4117495 L4.20833333,10.7450828 C4.20833333,10.9291777 4.05909492,11.0784162 3.875,11.0784162 L3.54166667,11.0784162 C3.35757175,11.0784162 3.20833333,10.9291777 3.20833333,10.7450828 L3.20833333,10.4117495 C3.20833333,10.2276546 3.35757175,10.0784162 3.54166667,10.0784162 L3.875,10.0784162 Z M9.29166667,7.66420808 C9.47576158,7.66420808 9.625,7.8134465 9.625,7.99754142 L9.625,8.33087475 C9.625,8.51496967 9.47576158,8.66420808 9.29166667,8.66420808 L4.70833333,8.66420808 C4.52423842,8.66420808 4.375,8.51496967 4.375,8.33087475 L4.375,7.99754142 C4.375,7.8134465 4.52423842,7.66420808 4.70833333,7.66420808 L9.29166667,7.66420808 Z M3.875,7.66420808 C4.05909492,7.66420808 4.20833333,7.8134465 4.20833333,7.99754142 L4.20833333,8.33087475 C4.20833333,8.51496967 4.05909492,8.66420808 3.875,8.66420808 L3.54166667,8.66420808 C3.35757175,8.66420808 3.20833333,8.51496967 3.20833333,8.33087475 L3.20833333,7.99754142 C3.20833333,7.8134465 3.35757175,7.66420808 3.54166667,7.66420808 L3.875,7.66420808 Z M9.29166667,5.25 C9.47576158,5.25 9.625,5.39923842 9.625,5.58333333 L9.625,5.91666667 C9.625,6.10076158 9.47576158,6.25 9.29166667,6.25 L4.70833333,6.25 C4.52423842,6.25 4.375,6.10076158 4.375,5.91666667 L4.375,5.58333333 C4.375,5.39923842 4.52423842,5.25 4.70833333,5.25 L9.29166667,5.25 Z M3.875,5.25 C4.05909492,5.25 4.20833333,5.39923842 4.20833333,5.58333333 L4.20833333,5.91666667 C4.20833333,6.10076158 4.05909492,6.25 3.875,6.25 L3.54166667,6.25 C3.35757175,6.25 3.20833333,6.10076158 3.20833333,5.91666667 L3.20833333,5.58333333 C3.20833333,5.39923842 3.35757175,5.25 3.54166667,5.25 L3.875,5.25 Z" id="形状结合"></path>
        </g>
    </g>
</svg>