<?xml version="1.0" encoding="UTF-8"?>
<svg width="10px" height="12px" viewBox="0 0 10 12" version="1.1" xmlns="http://www.w3.org/2000/svg" xmlns:xlink="http://www.w3.org/1999/xlink">
    <title>02 icon/占位</title>
    <g id="系统设置1208" stroke="none" stroke-width="1" fill="none" fill-rule="evenodd">
        <g id="02-icon/占位" transform="translate(0.041954, 0.322945)" fill="#000000" fill-rule="nonzero">
            <g id="编组">
                <path d="M4.95804611,0 C6.60713385,0 7.95178956,1.30342851 8.01799166,2.93626397 L8.02054611,3.0625 L8.02,4.512 L9.57824432,4.51269286 C9.76233923,4.51269286 9.91157765,4.66193128 9.91157765,4.84602619 L9.91157765,11.0239656 C9.91157765,11.2080605 9.76233923,11.3572989 9.57824432,11.3572989 L0.333333333,11.3572989 C0.149238417,11.3572989 -2.55010631e-16,11.2080605 0,11.0239656 L0,4.84602619 C3.29660262e-17,4.66193128 0.149238417,4.51269286 0.333333333,4.51269286 L1.895,4.512 L1.89554611,3.0625 C1.89554611,1.37112795 3.26667406,0 4.95804611,0 Z M9.03657765,5.38769286 L0.875,5.38769286 L0.875,10.4820098 L9.03657765,10.4820098 L9.03657765,5.38769286 Z M5.06221277,6.98851409 C5.24630769,6.98851409 5.39554611,7.1377525 5.39554611,7.32184742 L5.39554611,8.54717338 C5.39554611,8.7312683 5.24630769,8.88050671 5.06221277,8.88050671 L4.85387944,8.88050671 C4.66978452,8.88050671 4.52054611,8.7312683 4.52054611,8.54717338 L4.52054611,7.32184742 C4.52054611,7.1377525 4.66978452,6.98851409 4.85387944,6.98851409 L5.06221277,6.98851409 Z M4.95804611,0.875 C3.78889492,0.875 2.83396976,1.79221061 2.77357828,2.94632416 L2.77054611,3.0625 L2.77,4.512 L7.145,4.512 L7.14554611,3.0625 C7.14554611,1.85437711 6.166169,0.875 4.95804611,0.875 Z" id="形状结合"></path>
            </g>
        </g>
    </g>
</svg>