<?xml version="1.0" encoding="UTF-8"?>
<svg width="12px" height="12px" viewBox="0 0 12 12" version="1.1" xmlns="http://www.w3.org/2000/svg" xmlns:xlink="http://www.w3.org/1999/xlink">
    <title>02 icon/占位</title>
    <g id="工作概览-0916" stroke="none" stroke-width="1" fill="none" fill-rule="evenodd">
        <g id="01-导航/一级标题/默认备份" transform="translate(-18.000000, -21.000000)" fill="#93949B" fill-rule="nonzero">
            <g id="02-icon/占位" transform="translate(17.000000, 20.000000)">
                <path d="M5.79290207,1.16666667 C5.89351741,1.16666667 5.98874935,1.21211391 6.05203661,1.29033264 L7.26785467,2.7930007 C7.33114193,2.87121943 7.42637387,2.91666667 7.52698921,2.91666667 L12.5,2.91666667 C12.6840949,2.91666667 12.8333333,3.06590508 12.8333333,3.25 L12.8333333,12.5 C12.8333333,12.6840949 12.6840949,12.8333333 12.5,12.8333333 L1.5,12.8333333 C1.31590508,12.8333333 1.16666667,12.6840949 1.16666667,12.5 L1.16666667,1.5 C1.16666667,1.31590508 1.31590508,1.16666667 1.5,1.16666667 L5.79290207,1.16666667 Z M5.37557248,2.04166667 L2.04166667,2.04166667 L2.04166667,11.9583333 L11.9583333,11.9583333 L11.9583333,3.79166667 L7.10943423,3.79166667 C7.0088083,3.79166667 6.91356751,3.7462099 6.85028068,3.6679772 L5.63472603,2.16535613 C5.5714392,2.08712343 5.47619842,2.04166667 5.37557248,2.04166667 Z M9.58333333,5.54166667 C9.76742825,5.54166667 9.91666667,5.69090508 9.91666667,5.875 L9.91666667,6.08333333 C9.91666667,6.26742825 9.76742825,6.41666667 9.58333333,6.41666667 L4.41666667,6.41666667 C4.23257175,6.41666667 4.08333333,6.26742825 4.08333333,6.08333333 L4.08333333,5.875 C4.08333333,5.69090508 4.23257175,5.54166667 4.41666667,5.54166667 L9.58333333,5.54166667 Z" id="形状结合"></path>
            </g>
        </g>
    </g>
</svg>