<?xml version="1.0" encoding="UTF-8"?>
<svg width="14px" height="14px" viewBox="0 0 14 14" version="1.1" xmlns="http://www.w3.org/2000/svg" xmlns:xlink="http://www.w3.org/1999/xlink">
    <title>编组 2</title>
    <g id="规则组与调度任务-0711" stroke="none" stroke-width="1" fill="none" fill-rule="evenodd">
        <g id="Qualitis系统-我的项目-详情" transform="translate(-698.000000, -377.000000)">
            <g id="编组-4" transform="translate(236.000000, 304.000000)">
                <g id="按钮2备份-4" transform="translate(446.000000, 64.000000)">
                    <g id="编组-2" transform="translate(16.000000, 9.000000)">
                        <rect id="矩形" fill="#FFFFFF" opacity="0" x="0" y="0" width="14" height="14"></rect>
                        <g id="screen" transform="translate(1.000000, 1.000000)" fill="#93949B" fill-rule="nonzero">
                            <path d="M11.8882258,0.425920515 C11.9381412,0.519375975 11.9570794,0.626271753 11.9423086,0.731187406 L10.5008529,10.9696907 C10.4623551,11.2431364 10.209475,11.4335993 9.93602932,11.3951015 C9.88377006,11.387744 9.83300511,11.3721594 9.78561961,11.3489263 L6.30824352,9.64396964 C6.10973423,9.54664059 6.0147685,9.32264904 6.0730177,9.11722788 L6.10222355,9.04117903 L6.10222355,9.04117903 C6.21187169,8.81778187 6.48182292,8.72552143 6.70526423,8.83507958 L9.06553173,9.99237024 C9.31347337,10.1139414 9.6130227,10.0114979 9.7345939,9.76355631 C9.75782942,9.71616801 9.77341549,9.6653997 9.78077327,9.61313687 L10.843,2.063 L5.51472453,8.42004554 C5.4392468,8.51008594 5.39788776,8.62383033 5.39790416,8.74132144 L5.39829601,11.5492674 C5.39832688,11.7705101 5.23892802,11.9545394 5.02869665,11.9927278 L4.94762633,12 L4.94762633,12 C4.6986936,12 4.49689376,11.7982002 4.49689376,11.5492674 L4.49689376,8.41412713 C4.49689376,8.29667085 4.53824417,8.18296369 4.61369384,8.09294521 L9.663,2.067 L2.41254312,5.94125638 C2.16896981,6.07135887 2.07698354,6.37428295 2.20708603,6.61785625 C2.2541411,6.70595109 2.32650043,6.77793529 2.41483865,6.82453182 L3.59296445,7.4459681 C3.78852184,7.54912046 3.87683628,7.77582814 3.81254433,7.97944862 L3.78111081,8.05459308 L3.78111081,8.05459308 C3.66491832,8.27466397 3.39235993,8.3589282 3.17223804,8.24283235 L0.49312364,6.82982402 C0.248871087,6.70100126 0.155296746,6.39856397 0.284119499,6.15431142 C0.330717569,6.06595981 0.402710328,5.99359013 0.490817403,5.94653133 L11.211631,0.220446665 C11.4552075,0.0903502125 11.7581293,0.182343989 11.8882258,0.425920515 Z" id="形状结合"></path>
                        </g>
                    </g>
                </g>
            </g>
        </g>
    </g>
</svg>