<?xml version="1.0" encoding="UTF-8"?>
<svg width="12px" height="12px" viewBox="0 0 12 12" version="1.1" xmlns="http://www.w3.org/2000/svg" xmlns:xlink="http://www.w3.org/1999/xlink">
    <title>02 icon/占位 2</title>
    <g id="工作概览-0916" stroke="none" stroke-width="1" fill="none" fill-rule="evenodd">
        <g id="01-导航/一级标题/默认备份-2" transform="translate(-18.000000, -21.000000)" fill="#93949B" fill-rule="nonzero">
            <g id="02-icon/占位" transform="translate(17.000000, 20.000000)">
                <path d="M9.58333333,11.9583333 C9.76742825,11.9583333 9.91666667,12.1075718 9.91666667,12.2916667 L9.91666667,12.5 C9.91666667,12.6840949 9.76742825,12.8333333 9.58333333,12.8333333 L4.41666667,12.8333333 C4.23257175,12.8333333 4.08333333,12.6840949 4.08333333,12.5 L4.08333333,12.2916667 C4.08333333,12.1075718 4.23257175,11.9583333 4.41666667,11.9583333 L9.58333333,11.9583333 Z M12.5,1.16666667 C12.6840949,1.16666667 12.8333333,1.31590508 12.8333333,1.5 L12.8333333,10.1666667 C12.8333333,10.3507616 12.6840949,10.5 12.5,10.5 L1.5,10.5 C1.31590508,10.5 1.16666667,10.3507616 1.16666667,10.1666667 L1.16666667,1.5 C1.16666667,1.31590508 1.31590508,1.16666667 1.5,1.16666667 L12.5,1.16666667 Z M11.9583333,2.04166667 L2.04166667,2.04166667 L2.04166667,9.625 L11.9583333,9.625 L11.9583333,2.04166667 Z M10.0208333,3.64583333 C10.2049282,3.64583333 10.3541667,3.79507175 10.3541667,3.97916667 L10.3541667,5.9375 C10.3541667,6.12159492 10.2049282,6.27083333 10.0208333,6.27083333 L9.8125,6.27083333 C9.62840508,6.27083333 9.47916667,6.12159492 9.47916667,5.9375 L9.47866667,5.19066667 L6.85587675,7.81404958 C6.74433087,7.92566043 6.57333493,7.94160483 6.44477945,7.86190666 L6.38451013,7.81401168 L6.38451013,7.81401168 L5.34333333,6.7725 L4.30262815,7.81396372 C4.19116405,7.92565629 4.02017981,7.94166886 3.89159614,7.86201837 L3.83130951,7.81404958 L3.83130951,7.81404958 L3.6839956,7.66673566 C3.55382084,7.5365609 3.55382084,7.32550591 3.6839956,7.19533114 L5.10789087,5.77143587 C5.21944079,5.65982905 5.3904373,5.64388522 5.51899286,5.72358347 L5.57926219,5.77146907 L5.57926219,5.77146907 L6.61966667,6.81216667 L8.91066667,4.52066667 L8.0625,4.52083333 C7.87840508,4.52083333 7.72916667,4.37159492 7.72916667,4.1875 L7.72916667,3.97916667 C7.72916667,3.79507175 7.87840508,3.64583333 8.0625,3.64583333 L10.0208333,3.64583333 Z" id="形状结合"></path>
            </g>
        </g>
    </g>
</svg>