<?xml version="1.0" standalone="no"?><!DOCTYPE svg PUBLIC "-//W3C//DTD SVG 1.1//EN" "http://www.w3.org/Graphics/SVG/1.1/DTD/svg11.dtd"><svg class="icon" width="200px" height="171.52px" viewBox="0 0 1194 1024" version="1.1" xmlns="http://www.w3.org/2000/svg"><path d="M1082.709333 250.709333v74.581334H62.208v-74.581334z"  /><path d="M1120.085333 38.997333c13.653333 0 24.832 11.093333 24.832 24.917334v896c0 13.653333-11.093333 24.832-24.832 24.832H74.581333a24.917333 24.917333 0 0 1-24.832-24.832V63.914667c0-13.738667 11.093333-24.917333 24.832-24.917334h1045.504z m-49.834666 74.666667H124.416v796.416h945.834667V113.664z"  /><path d="M958.293333 524.458667v24.917333c0 13.653333-11.178667 24.832-25.002666 24.832H609.792a24.917333 24.917333 0 0 1-24.917333-24.917333v-24.832c0-13.738667 11.093333-24.917333 24.917333-24.917334h323.584c13.653333 0 24.832 11.093333 24.832 24.917334zM958.293333 723.626667v24.746666c0 13.824-11.178667 25.002667-25.002666 25.002667H609.792a24.917333 24.917333 0 0 1-24.917333-24.917333v-24.917334c0-13.653333 11.093333-24.832 24.917333-24.832h323.584c13.653333 0 24.832 11.093333 24.832 24.832zM460.458667 474.709333H236.373333a24.917333 24.917333 0 0 0-24.917333 24.832v273.749334c0 13.824 11.093333 24.917333 24.917333 24.917333h224c13.653333 0 24.917333-11.093333 24.917334-24.832V499.541333a24.917333 24.917333 0 0 0-24.917334-24.917333z m-49.749334 74.666667v174.165333H286.122667V549.376h124.416z"  /></svg>