<?xml version="1.0" standalone="no"?><!DOCTYPE svg PUBLIC "-//W3C//DTD SVG 1.1//EN" "http://www.w3.org/Graphics/SVG/1.1/DTD/svg11.dtd"><svg class="icon" width="200px" height="200.00px" viewBox="0 0 1024 1024" version="1.1" xmlns="http://www.w3.org/2000/svg"><path d="M899.291429 74.752v385.828571c0 11.776-9.508571 21.357714-21.284572 21.357715h-21.357714a21.357714 21.357714 0 0 1-21.357714-21.357715V117.394286H183.442286v789.357714H390.070857c11.776 0 21.357714 9.508571 21.357714 21.284571v21.357715c0 11.776-9.581714 21.357714-21.357714 21.357714H140.8A21.357714 21.357714 0 0 1 119.442286 949.394286V74.752C119.442286 62.902857 128.950857 53.394286 140.8 53.394286H877.933714c11.702857 0 21.284571 9.508571 21.284572 21.357714z"  /><path d="M650.971429 504.32a213.357714 213.357714 0 1 1 0 426.715429 213.357714 213.357714 0 0 1 0-426.715429z m0 64a149.357714 149.357714 0 1 0 0 298.715429 149.357714 149.357714 0 0 0 0-298.715429z"  /><path d="M759.369143 877.202286l44.982857-45.494857 91.648 90.624a21.357714 21.357714 0 0 1 0.146286 30.134857l-14.994286 15.213714a21.357714 21.357714 0 0 1-30.134857 0.146286l-91.648-90.697143z"  /><path d="M269.970286 213.430857m21.357714 0l341.284571 0q21.357714 0 21.357715 21.357714l0 30.427429q0 21.357714-21.357715 21.357714l-341.284571 0q-21.357714 0-21.357714-21.357714l0-30.427429q0-21.357714 21.357714-21.357714Z"  /><path d="M269.970286 384.073143m21.357714 0l213.284571 0q21.357714 0 21.357715 21.357714l0 30.427429q0 21.357714-21.357715 21.357714l-213.284571 0q-21.357714 0-21.357714-21.357714l0-30.427429q0-21.357714 21.357714-21.357714Z"  /></svg>