<?xml version="1.0" encoding="UTF-8"?>
<svg width="14px" height="12px" viewBox="0 0 14 12" version="1.1" xmlns="http://www.w3.org/2000/svg" xmlns:xlink="http://www.w3.org/1999/xlink">
    <title>02 icon/占位 4</title>
    <g id="工作概览-0916" stroke="none" stroke-width="1" fill="none" fill-rule="evenodd">
        <g id="01-导航/一级标题/加icon-默认备份-2" transform="translate(-17.000000, -21.000000)" fill="#93949B" fill-rule="nonzero">
            <g id="02-icon/占位" transform="translate(17.000000, 20.000000)">
                <path d="M9.95690434,1.54515812 C10.0759929,1.54515812 10.1860352,1.6086911 10.2455795,1.71182479 L10.2455795,1.71182479 L13.2024838,6.83333333 C13.2620281,6.93646703 13.2620281,7.06353297 13.2024838,7.16666667 L13.2024838,7.16666667 L10.2455795,12.2881752 C10.1860352,12.3913089 10.0759929,12.4548419 9.95690434,12.4548419 L9.95690434,12.4548419 L4.04309566,12.4548419 C3.92400713,12.4548419 3.81396479,12.3913089 3.75442053,12.2881752 L3.75442053,12.2881752 L0.797516193,7.16666667 C0.737971928,7.06353297 0.737971928,6.93646703 0.797516193,6.83333333 L0.797516193,6.83333333 L3.75442053,1.71182479 C3.81396479,1.6086911 3.92400713,1.54515812 4.04309566,1.54515812 L4.04309566,1.54515812 Z M9.68419389,2.35083333 L4.31636056,2.35083333 L1.63186056,7 L4.31636056,11.6485833 L9.68419389,11.6485833 L12.3686939,7 L9.68419389,2.35083333 Z M6.99996935,4.34449773 C8.46454571,4.34449773 9.65550227,5.53543192 9.65550227,7.00003065 C9.65550227,8.46464058 8.46459583,9.65550227 6.99996935,9.65550227 C5.53535114,9.65550227 4.34449773,8.46464886 4.34449773,7.00003065 C4.34449773,5.53540417 5.53535942,4.34449773 6.99996935,4.34449773 Z M6.99996935,5.15055177 C5.98053756,5.15055177 5.15055177,5.98056875 5.15055177,7.00003065 C5.15055177,8.0194775 5.9805225,8.84944823 6.99996935,8.84944823 C8.01943125,8.84944823 8.84944823,8.01946244 8.84944823,7.00003065 C8.84944823,5.98060666 8.01937774,5.15055177 6.99996935,5.15055177 Z" id="形状结合"></path>
            </g>
        </g>
    </g>
</svg>