<?xml version="1.0" encoding="UTF-8"?>
<svg width="12px" height="12px" viewBox="0 0 12 12" version="1.1" xmlns="http://www.w3.org/2000/svg" xmlns:xlink="http://www.w3.org/1999/xlink">
    <title>编组 17备份 4</title>
    <g id="标准值管理0424" stroke="none" stroke-width="1" fill="none" fill-rule="evenodd">
        <g id="编组-17备份-4">
            <rect id="矩形" fill="#FFFFFF" opacity="0" x="0" y="0" width="12" height="12"></rect>
            <path d="M9.75,1 C10.0261424,1 10.25,1.22385763 10.25,1.5 L10.25,5.5 L9.5,5.5 L9.5,2.25 C9.5,1.97385763 9.27614237,1.75 9,1.75 L2,1.75 C1.75454011,1.75 1.55039163,1.92687516 1.50805567,2.16012437 L1.5,2.25 L1.5,10.25 C1.5,10.4954599 1.67687516,10.6996084 1.91012437,10.7419443 L2,10.75 L6.25,10.75 L6.25,11.5 L1.25,11.5 C0.973857625,11.5 0.75,11.2761424 0.75,11 L0.75,1.5 C0.75,1.22385763 0.973857625,1 1.25,1 L9.75,1 Z M8.85026158,6.01771182 L8.9415541,6.0491995 L10.9204069,6.72872741 C11.15926,6.82335944 11.2338258,6.83282264 11.2472784,7.08785992 L11.2496406,7.18242138 L11.2496406,8.39740201 C11.2475846,9.54004187 10.5578697,10.5354802 9.56732503,11.1162105 L9.38947896,11.214333 L8.74949197,11.5 L8.10984092,11.214333 C7.08385716,10.6839254 6.3385663,9.7219258 6.25705631,8.59746748 L6.24964062,8.39740201 L6.24964062,7.18242138 C6.25082099,6.86872883 6.29408441,6.83735958 6.5393779,6.75757071 L6.6288444,6.72872741 L8.56147428,6.0491995 C8.70526377,5.99672003 8.74720957,5.98622414 8.85026158,6.01771182 Z M8.7498392,6.75 L8.70931728,6.75713861 L7.07461178,7.36012029 C7.04477307,7.37125095 7.02164584,7.39362505 7.00948488,7.42121792 L7,7.46576823 L7,8.44088294 C7.00176191,9.30819506 7.48411118,10.1008182 8.24982649,10.5167625 L8.40668933,10.5948394 L8.7498392,10.75 L9.09331067,10.5948394 C9.89603031,10.2304162 10.4284567,9.46908898 10.49332,8.61296649 L10.5,8.44056757 L10.5,7.46576823 C10.499869,7.43446275 10.4866444,7.40536371 10.4645808,7.38449578 L10.4253882,7.36012029 L8.79036111,6.75713861 L8.7498392,6.75 Z M3.875,8 C4.08210678,8 4.25,8.16789322 4.25,8.375 C4.25,8.58210678 4.08210678,8.75 3.875,8.75 L2.625,8.75 C2.41789322,8.75 2.25,8.58210678 2.25,8.375 C2.25,8.16789322 2.41789322,8 2.625,8 L3.875,8 Z M5.375,5.5 C5.58210678,5.5 5.75,5.66789322 5.75,5.875 C5.75,6.08210678 5.58210678,6.25 5.375,6.25 L2.625,6.25 C2.41789322,6.25 2.25,6.08210678 2.25,5.875 C2.25,5.66789322 2.41789322,5.5 2.625,5.5 L5.375,5.5 Z M7.875,3 C8.08210678,3 8.25,3.16789322 8.25,3.375 C8.25,3.58210678 8.08210678,3.75 7.875,3.75 L2.625,3.75 C2.41789322,3.75 2.25,3.58210678 2.25,3.375 C2.25,3.16789322 2.41789322,3 2.625,3 L7.875,3 Z" id="形状结合" fill="#0F1222"></path>
        </g>
    </g>
</svg>