<?xml version="1.0" standalone="no"?>
<!DOCTYPE svg PUBLIC "-//W3C//DTD SVG 1.1//EN" "http://www.w3.org/Graphics/SVG/1.1/DTD/svg11.dtd"><svg class="icon"
    width="200px" height="200.00px" viewBox="0 0 1024 1024" version="1.1" xmlns="http://www.w3.org/2000/svg">
    <path
        d="M608.256 48.859429L868.205714 308.297143a21.357714 21.357714 0 0 1 6.290286 15.067428v636.708572c0 11.702857-9.508571 21.284571-21.357714 21.284571H170.788571a21.357714 21.357714 0 0 1-21.357714-21.284571V63.926857c0-11.702857 9.508571-21.284571 21.357714-21.284571H593.188571c5.632 0 11.044571 2.194286 15.067429 6.217143z m-32.694857 57.782857H213.430857v810.715428h597.138286v-576.365714L575.561143 106.715429z" />
    <path
        d="M586.605714 42.642286v297.910857h266.752v64.073143h-309.394285a21.357714 21.357714 0 0 1-21.284572-21.357715V42.642286h64zM685.641143 549.156571v21.284572c0 11.776-9.508571 21.357714-21.357714 21.357714H450.998857a21.357714 21.357714 0 0 1-21.357714-21.357714v-21.284572c0-11.776 9.508571-21.357714 21.357714-21.357714h213.284572c11.849143 0 21.357714 9.508571 21.357714 21.357714zM685.641143 719.725714v21.430857c0 11.702857-9.508571 21.284571-21.357714 21.284572H450.998857a21.357714 21.357714 0 0 1-21.357714-21.284572V719.725714c0-11.776 9.508571-21.357714 21.357714-21.357714h213.284572c11.849143 0 21.357714 9.508571 21.357714 21.357714zM365.714286 549.156571v21.284572c0 11.776-9.581714 21.357714-21.430857 21.357714h-21.284572a21.357714 21.357714 0 0 1-21.357714-21.357714v-21.284572c0-11.776 9.508571-21.357714 21.357714-21.357714h21.284572c11.849143 0 21.357714 9.508571 21.357714 21.357714zM365.714286 719.725714v21.430857c0 11.702857-9.581714 21.284571-21.430857 21.284572h-21.284572a21.357714 21.357714 0 0 1-21.357714-21.284572V719.725714c0-11.776 9.508571-21.357714 21.357714-21.357714h21.284572c11.849143 0 21.357714 9.508571 21.357714 21.357714z" />
</svg>