<?xml version="1.0" encoding="UTF-8"?>
<svg width="14px" height="14px" viewBox="0 0 14 14" version="1.1" xmlns="http://www.w3.org/2000/svg" xmlns:xlink="http://www.w3.org/1999/xlink">
    <title>编组 2备份 2</title>
    <g id="租户管理" stroke="none" stroke-width="1" fill="none" fill-rule="evenodd">
        <g id="编组-2备份-2">
            <rect id="矩形" fill="#FFFFFF" opacity="0" x="0" y="0" width="14" height="14"></rect>
            <path d="M5.74583333,1.80833333 C7.35666385,1.80833333 8.6625,3.11416948 8.6625,4.725 C8.6625,5.75447815 8.12913654,6.65938259 7.32366624,7.17845672 C9.20680031,7.83058303 10.5583333,9.61995779 10.5583333,11.725 C10.5583333,11.9666246 10.5583333,12.1625 10.1208333,12.1625 C9.68333333,12.1625 9.68333333,11.9666246 9.68333333,11.725 C9.68333333,9.5503788 7.92045454,7.7875 5.74583333,7.7875 C3.57121213,7.7875 1.80833333,9.5503788 1.80833333,11.725 C1.80833333,11.9666246 1.80833333,12.1625 1.37083333,12.1625 C0.933333333,12.1625 0.933333333,11.9666246 0.933333333,11.725 C0.933333333,9.61995779 2.28486635,7.83058303 4.1675234,7.17728471 C3.36253012,6.65938259 2.82916667,5.75447815 2.82916667,4.725 C2.82916667,3.11416948 4.13500281,1.80833333 5.74583333,1.80833333 Z M9.07029944,2.21931584 C9.72098187,2.39328489 11.0296519,3.18275664 11.0296519,4.82967734 C11.0296519,5.95814079 10.2027202,6.70193999 10.0286576,6.82918289 C10.4139161,6.92749296 11.5359978,7.47228377 12.2264304,8.41251196 C13.0125584,9.48305774 13.0785579,10.4900237 13.0881863,11.048169 C13.0899016,11.1476061 13.0617579,11.1778055 13.0054323,11.239267 C12.9531266,11.2917982 12.8374144,11.2975115 12.6678239,11.2975115 C12.562274,11.2975115 12.4763293,11.30177 12.4045774,11.2424792 C12.3863019,11.2273776 12.3391909,11.1794908 12.3338249,11.0918935 C12.2884678,10.3514564 12.0506258,9.50845148 11.619975,8.94161773 C11.0218563,8.15435841 10.280173,7.61080905 9.33157624,7.38977 C9.15866446,7.34947864 8.88667835,7.23928716 8.83767886,7.07876899 C8.79164402,6.92796277 8.80750513,6.62500037 8.94365688,6.55512251 C9.07980864,6.48524464 9.2964299,6.38860274 9.40478249,6.31236243 C9.82183452,6.01891143 10.2056855,5.50704351 10.2056855,4.82967734 C10.2056855,3.57461484 9.43526459,3.24113847 8.91107211,3.01111815 C8.80568093,2.96487156 8.79171687,2.85194337 8.79165001,2.78862131 L8.79164402,2.46237993 L8.79164402,2.46237993 C8.79176995,2.32379603 8.98526322,2.19658022 9.07029944,2.21931584 Z M5.74583333,2.68333333 C4.61825197,2.68333333 3.70416667,3.59741864 3.70416667,4.725 C3.70416667,5.85258136 4.61825197,6.76666667 5.74583333,6.76666667 C6.8734147,6.76666667 7.7875,5.85258136 7.7875,4.725 C7.7875,3.59741864 6.8734147,2.68333333 5.74583333,2.68333333 Z" id="形状结合" fill="#000000"></path>
        </g>
    </g>
</svg>